<?xml version="1.0" encoding="UTF-8"?>
<svg version="1.1" xmlns="http://www.w3.org/2000/svg" width="1639" height="1896">
<path d="M0 0 C0.87926476 -0.00397441 1.75852952 -0.00794881 2.66443866 -0.01204365 C5.61637602 -0.02168294 8.56783607 -0.00983866 11.51976013 0.00190735 C13.63368407 -0.00052006 15.74760687 -0.00423888 17.86152649 -0.00915527 C23.60723669 -0.0185743 29.35277685 -0.00913057 35.09847379 0.00417686 C41.10421356 0.01547657 47.10994479 0.01138503 53.11569214 0.00942993 C63.2010934 0.00854656 73.28642749 0.01963704 83.37181091 0.03804016 C95.04275534 0.05921415 106.71360138 0.06271669 118.38456112 0.0564782 C129.59936359 0.05078979 140.8141313 0.05642366 152.02892876 0.06765175 C156.80758746 0.07230409 161.58622497 0.07316885 166.36488533 0.0710659 C171.98812406 0.0691866 177.6112622 0.0772593 183.234478 0.0931263 C185.30212806 0.09738004 187.3697883 0.09821242 189.43744087 0.0954361 C192.25202524 0.09222935 195.06630622 0.10125793 197.88085938 0.11352539 C198.70594626 0.10974607 199.53103314 0.10596674 200.38112265 0.10207289 C204.23940662 0.13197876 206.09033935 0.18315613 209.37693787 2.3742218 C210.41989007 8.2238233 207.60050805 12.90835543 205.18943787 18.0617218 C187.92247666 56.43239585 174.38469615 97.29534068 174.17381287 139.7804718 C174.16679855 140.73524918 174.15978424 141.69002655 174.15255737 142.67373657 C174.13515058 145.74061359 174.1287042 148.80729718 174.12693787 151.8742218 C174.12626312 152.92467682 174.12558838 153.97513184 174.12489319 155.05741882 C174.1415095 171.35274295 174.67546601 187.26899458 177.37693787 203.3742218 C177.55917908 204.46380188 177.74142029 205.55338196 177.92918396 206.67597961 C180.05433574 219.01499786 182.65442606 231.21728971 185.85301208 243.32319641 C186.67034584 246.42162239 187.37693787 249.15393133 187.37693787 252.3742218 C188.37483841 252.36391434 189.37273895 252.35360687 190.40087891 252.34298706 C245.89491866 251.771492 301.38891258 251.2930473 356.88459474 250.92037958 C401.39473275 250.62145401 445.90464226 250.31362331 490.41393661 249.90466309 C493.7255837 249.87446214 497.03723668 249.84500917 500.34889221 249.81575012 C520.4773199 249.63694427 540.6038789 249.44017987 560.72916412 249.03309631 C563.13722481 248.98457026 565.54531207 248.9376933 567.95341492 248.89131165 C576.62092698 248.72525342 576.62092698 248.72525342 585.28752136 248.51802063 C588.96951116 248.42121239 592.65151576 248.34154863 596.33396912 248.2648468 C597.38442917 248.2306665 598.43488922 248.19648621 599.5171814 248.16127014 C605.84720836 248.04880832 610.15018613 248.70380658 615.18943787 252.8742218 C617.54279466 255.84688301 617.60371952 259.08606777 617.87693787 262.72969055 C617.9588739 263.81290588 618.04080994 264.89612122 618.12522888 266.01216125 C618.20829285 267.18351624 618.29135681 268.35487122 618.37693787 269.5617218 C618.50830139 271.40093201 618.50830139 271.40093201 618.64231873 273.27729797 C619.45357817 284.9728919 620.03358485 296.65582005 620.37693787 308.3742218 C620.40980896 309.49129517 620.40980896 309.49129517 620.44334412 310.63093567 C620.86659098 325.2101734 621.16003665 339.79052472 621.37693787 354.3742218 C621.39474304 355.5452948 621.41254822 356.7163678 621.43089294 357.92292786 C621.53819551 365.23934578 621.61700998 372.55535706 621.66304016 379.87242126 C621.68056977 382.23932327 621.70486923 384.60618528 621.73609924 386.97294617 C621.77778298 390.28529491 621.79358767 393.59680076 621.80271912 396.90937805 C621.82891327 398.39061661 621.82891327 398.39061661 621.8556366 399.90177917 C621.84190569 404.25884621 621.7993465 406.68748916 619.47532654 410.46577454 C615.93673439 413.68406131 613.72472206 413.49877438 609.00883293 413.49726963 C608.01260767 413.4990004 608.01260767 413.4990004 606.99625665 413.50076613 C604.74901079 413.50343356 602.50183518 413.49890959 600.2545929 413.49447632 C598.63594487 413.49491199 597.01729691 413.49578683 595.39864933 413.49706548 C590.93374216 413.49931116 586.46885879 413.49528817 582.00395465 413.49028742 C577.19549225 413.48598415 572.38703128 413.48742926 567.5785675 413.4881897 C559.24193375 413.48871501 550.90530779 413.48556744 542.56867599 413.47995186 C530.51518431 413.47183785 518.46169642 413.46922174 506.40820231 413.46796387 C486.85399613 413.46577319 467.29979412 413.45911268 447.74559021 413.44966125 C428.74624146 413.44048754 409.74689385 413.43340651 390.74754333 413.42915344 C389.57716652 413.42889072 388.4067897 413.428628 387.20094691 413.42835731 C381.32973226 413.42705231 375.45851759 413.42578859 369.58730292 413.42454541 C320.85051169 413.41417231 272.11372498 413.39655357 223.37693787 413.3742218 C223.61808571 414.77461952 223.61808571 414.77461952 223.86410522 416.20330811 C224.33871044 419.13785645 224.57564321 421.94202189 224.69334412 424.90937805 C224.75654846 426.47583069 224.75654846 426.47583069 224.82102966 428.07392883 C225.02407116 433.84030742 225.21693753 439.60646789 225.37693787 445.3742218 C225.40175232 446.23934387 225.42656677 447.10446594 225.45213318 447.99580383 C227.48521956 530.95606573 209.46717062 613.88055977 130.71580505 805.92939758 C129.14682328 808.79442009 127.61119245 811.67654976 126.07225037 814.55781555 C113.30997694 838.22334519 98.55574034 860.32644741 81.87693787 881.4367218 C81.41537292 882.02195618 80.95380798 882.60719055 80.47825623 883.2101593 C76.17550235 888.65176847 71.81961484 894.04596138 67.37693787 899.3742218 C66.94864685 899.88888 66.52035583 900.40353821 66.0790863 900.93379211 C48.60693308 921.85291767 29.38573015 941.00908639 8.37693787 958.3742218 C7.79267029 958.85810364 7.20840271 959.34198547 6.60643005 959.8405304 C-51.89391662 1008.04062612 -121.61501057 1041.91035123 -191.43830872 1070.36842346 C-192.96254122 1070.99091675 -194.48501215 1071.61774325 -196.00556946 1072.24916077 C-198.12516635 1073.1268059 -200.25152649 1073.98539864 -202.38087463 1074.83906555 C-203.58888733 1075.3301178 -204.79690002 1075.82117004 -206.04151917 1076.32710266 C-211.55513623 1077.93909336 -215.87478034 1078.32046697 -221.08009338 1075.50312805 C-222.21378382 1074.66790848 -223.33197829 1073.8113351 -224.43556213 1072.9367218 C-225.03739319 1072.4822467 -225.63922424 1072.02777161 -226.2592926 1071.55952454 C-228.06452321 1070.18516906 -229.84570306 1068.78435793 -231.62306213 1067.3742218 C-232.58856995 1066.6214093 -233.55407776 1065.8685968 -234.54884338 1065.0929718 C-240.99732015 1059.94165607 -247.06885701 1054.39591462 -253.10694885 1048.77705383 C-254.60445629 1047.39143745 -256.11322267 1046.01940806 -257.62696838 1044.65156555 C-266.8641025 1036.29423011 -275.89935164 1027.72926035 -283.98243713 1018.2335968 C-285.78454002 1016.19121353 -287.6824516 1014.28520469 -289.62306213 1012.3742218 C-292.81567525 1009.2244215 -295.79467493 1005.96202692 -298.71681213 1002.5617218 C-300.93251861 1000.01910781 -303.21404805 997.54311982 -305.49806213 995.0617218 C-309.64232178 990.5224722 -313.54884611 985.83963884 -317.40821838 981.05781555 C-319.5793904 978.42713623 -321.8254757 975.89479756 -324.12306213 973.3742218 C-327.98839559 969.12770495 -331.6370446 964.7440907 -335.24806213 960.2804718 C-337.78971591 957.17029021 -340.3891468 954.11533339 -342.99806213 951.0617218 C-347.73997193 945.49297508 -352.28066265 939.78694281 -356.77149963 934.0148468 C-358.79302198 931.42082024 -360.84312635 928.85241613 -362.91212463 926.2960968 C-363.45812317 925.62046692 -364.0041217 924.94483704 -364.56666565 924.24873352 C-365.62150585 922.94589213 -366.67915224 921.64531621 -367.74000549 920.34736633 C-372.03371636 915.03464946 -374.08629816 911.52663395 -373.85743713 904.55781555 C-373.5074901 901.29747572 -372.92767057 899.74866686 -370.62306213 897.3742218 C-362.80275658 894.19396421 -354.58166016 892.9854037 -346.30671692 891.5579071 C-262.51711028 877.00018771 -185.08943857 843.02358456 -99.62306213 761.3742218 C-98.83802307 760.47832336 -98.05298401 759.58242493 -97.24415588 758.65937805 C-39.22823566 692.03931037 -9.13971094 604.24951648 2.68943787 517.7492218 C2.83679382 516.67511047 2.98414978 515.60099915 3.13597107 514.49433899 C3.60572036 510.79248342 4.00887394 507.08726601 4.37693787 503.3742218 C4.50763672 502.07227875 4.50763672 502.07227875 4.64097595 500.74403381 C6.39896069 482.60643069 6.63103268 464.58263049 6.51426697 446.38453674 C6.49331686 442.75612343 6.48457142 439.12767894 6.47459412 435.4992218 C6.45353503 428.45748347 6.41968852 421.41586486 6.37693787 414.3742218 C5.38693787 414.8692218 5.38693787 414.8692218 4.37693787 415.3742218 C2.91514865 415.47688376 1.44882982 415.51814905 -0.01652336 415.52850437 C-0.9457879 415.53746221 -1.87505243 415.54642005 -2.8324765 415.55564934 C-4.37441041 415.56295292 -4.37441041 415.56295292 -5.94749451 415.57040405 C-7.03452923 415.57942558 -8.12156395 415.58844711 -9.24153912 415.59774202 C-12.91019799 415.62697265 -16.5788663 415.64912157 -20.24757385 415.67134094 C-22.86923023 415.69077316 -25.49088346 415.71063499 -28.11253357 415.730896 C-34.51851346 415.7796077 -40.92451894 415.82306914 -47.33054744 415.86483914 C-54.81940259 415.9138876 -62.30821592 415.96829718 -69.79703178 416.02297025 C-83.20044137 416.12065788 -96.60387895 416.21374797 -110.00733948 416.30415344 C-122.94030403 416.39139192 -135.87324546 416.48134099 -148.8061676 416.57466125 C-149.59775044 416.58037252 -150.38933327 416.58608379 -151.20490347 416.59196813 C-154.38919852 416.61494814 -157.57349356 416.6379313 -160.75778853 416.66092259 C-173.15618529 416.75035767 -185.55459692 416.83770026 -197.9530113 416.92465459 C-201.67335184 416.95074889 -205.39369179 416.97692159 -209.11403036 417.00329518 C-273.29991742 417.45818778 -273.29991742 417.45818778 -303.62306213 417.3742218 C-303.38507904 418.2867572 -303.38507904 418.2867572 -303.14228821 419.21772766 C-299.86263459 432.83906558 -301.37978025 448.4773956 -301.37306213 462.3742218 C-301.37205002 464.25254196 -301.37205002 464.25254196 -301.37101746 466.16880798 C-301.38694374 484.77114883 -301.83646681 502.95416846 -304.62306213 521.3742218 C-304.87249573 523.11735657 -304.87249573 523.11735657 -305.12696838 524.89570618 C-310.15614981 559.41079201 -319.96336722 592.22826494 -333.87306213 624.1867218 C-334.35613831 625.30788391 -334.83921448 626.42904602 -335.33692932 627.58418274 C-341.61962041 641.60735567 -341.61962041 641.60735567 -349.16363239 644.93680573 C-353.78422267 646.61901388 -357.98639997 646.80012548 -362.86553955 646.76863098 C-363.76314509 646.77472208 -364.66075062 646.78081319 -365.58555633 646.78708887 C-368.57564672 646.80366019 -371.56530854 646.79895153 -374.55543518 646.79414368 C-376.70611511 646.80148713 -378.85679111 646.81007416 -381.00746155 646.81980896 C-386.83568506 646.84199746 -392.66376709 646.84495719 -398.49202704 646.84306145 C-403.35824265 646.84294169 -408.22442833 646.85150728 -413.0906356 646.85983896 C-424.56671545 646.87906111 -436.04272255 646.88196017 -447.51881409 646.87519836 C-459.3625824 646.86854867 -471.20603999 646.89146218 -483.04974526 646.9285121 C-493.21977018 646.95917327 -503.38969492 646.9705733 -513.55976516 646.96667528 C-519.63361435 646.96460517 -525.70722139 646.97012873 -531.78102684 646.99456787 C-537.48817127 647.01677483 -543.19480823 647.01500741 -548.90195465 646.99464035 C-550.99780227 646.99122029 -553.09368367 646.99636198 -555.18948555 647.01062393 C-558.04743255 647.02873304 -560.90364234 647.01612979 -563.76153564 646.99568176 C-564.59363216 647.00819961 -565.42572867 647.02071746 -566.28304023 647.03361464 C-570.52945239 646.96833101 -572.16366254 646.72736007 -575.64449787 644.05165863 C-578.24764203 640.5290265 -578.25252372 638.67080094 -577.62306213 634.3742218 C-576.25294495 631.52607727 -576.25294495 631.52607727 -574.32618713 628.7414093 C-573.62050598 627.69879944 -572.91482483 626.65618958 -572.1877594 625.58198547 C-571.81015472 625.03883698 -571.43255005 624.49568848 -571.04350281 623.93608093 C-569.04718312 621.05895084 -567.1097067 618.14252682 -565.16603088 615.22969055 C-564.77483566 614.64591141 -564.38364044 614.06213226 -563.98059082 613.46066284 C-540.17246474 577.78637233 -524.61388615 536.80206543 -518.62306213 494.3742218 C-518.50591858 493.58402649 -518.38877502 492.79383118 -518.26808167 491.97969055 C-515.01095173 469.25237677 -516.08610992 445.47754491 -517.38253784 422.61573792 C-517.42757604 421.82032215 -517.47261423 421.02490639 -517.51901722 420.20538712 C-517.55335204 419.60110256 -517.58768686 418.99681801 -517.62306213 418.3742218 C-518.31815998 418.40295881 -519.01325782 418.43169582 -519.72941923 418.46130365 C-538.10951979 419.2062817 -556.46485025 419.56322622 -574.85939026 419.67134094 C-577.66628582 419.69040438 -580.47317231 419.71068538 -583.28005981 419.730896 C-590.05017138 419.77891156 -596.82030368 419.8226612 -603.59045386 419.86483914 C-611.56414893 419.91467016 -619.53781342 419.96878922 -627.51147991 420.02297025 C-641.82518279 420.12007631 -656.13890869 420.21321775 -670.45265198 420.30415344 C-684.1470103 420.39115624 -697.84134375 420.48123908 -711.53565979 420.57466125 C-746.25557554 420.8111908 -780.97548184 421.03727957 -815.69570994 421.22333104 C-819.30414449 421.24266891 -822.9125782 421.26215771 -826.52101135 421.28175354 C-827.21586561 421.28552253 -827.91071986 421.28929152 -828.62663031 421.29317473 C-839.00280618 421.34986249 -849.37880563 421.42168265 -859.75480986 421.50390178 C-867.32308926 421.56331429 -874.8913522 421.61069677 -882.45978975 421.64461583 C-887.20591066 421.66634143 -891.9515166 421.7032574 -896.6974144 421.75374651 C-900.0769159 421.78459055 -903.45632179 421.78964528 -906.83595276 421.79780579 C-907.99083694 421.81546682 -909.14572113 421.83312786 -910.33560181 421.85132408 C-917.85903374 421.83190648 -917.85903374 421.83190648 -921.79725647 419.4727478 C-924.39376588 416.48839815 -924.74523368 414.95952953 -924.67652893 411.09931946 C-924.65593163 409.73794861 -924.65593163 409.73794861 -924.63491821 408.34907532 C-924.61424789 407.33901428 -924.59357758 406.32895325 -924.57228088 405.2882843 C-924.55422897 404.20845276 -924.53617706 403.12862122 -924.51757812 402.0160675 C-924.45434328 398.3436574 -924.38294548 394.67146242 -924.31056213 390.9992218 C-924.26146385 388.39684752 -924.21247606 385.79447116 -924.16358948 383.1920929 C-924.0820035 378.88285614 -923.99879383 374.57365734 -923.91255188 370.26451111 C-923.71470303 360.35310249 -923.53703386 350.44151651 -923.37212849 340.52950478 C-923.23211783 332.15408213 -923.08072622 323.77890652 -922.9221983 315.40381432 C-922.82364639 310.17946078 -922.72995291 304.95511955 -922.64756775 299.73048401 C-922.56866698 294.74781745 -922.47584602 289.76559483 -922.37280464 284.78337097 C-922.33685066 282.92880745 -922.30587571 281.07413993 -922.28016472 279.21940613 C-922.24392745 276.66198678 -922.18980967 274.10553283 -922.13136292 271.54853821 C-922.12501674 270.80398188 -922.11867056 270.05942554 -922.11213207 269.2923069 C-921.95649641 263.74274395 -920.7458581 259.501218 -916.77223206 255.51972961 C-914.076796 254.08306189 -912.28820704 254.01628993 -909.23634338 254.0460968 C-908.10454651 254.05052795 -906.97274963 254.05495911 -905.80665588 254.05952454 C-904.52919495 254.08087463 -903.25173401 254.10222473 -901.93556213 254.1242218 C-900.51369621 254.13706873 -899.09182008 254.14882202 -897.66993713 254.15962219 C-892.65384576 254.20528901 -887.63859089 254.28753477 -882.62306213 254.3742218 C-881.71892578 254.38967041 -880.81478943 254.40511902 -879.883255 254.42103577 C-871.42586157 254.56693854 -862.9686346 254.72213607 -854.51142883 254.87849426 C-831.36214389 255.30423344 -808.21241805 255.62525375 -785.06056213 255.8742218 C-784.1240683 255.8843203 -783.18757446 255.89441879 -782.22270203 255.9048233 C-706.02607795 256.71860555 -629.82274425 256.98027321 -553.62306213 257.3742218 C-554.0395283 255.72151087 -554.0395283 255.72151087 -554.46440792 254.03541183 C-554.83073041 252.57721381 -555.1970026 251.11900316 -555.56323242 249.66078186 C-555.74599275 248.93607382 -555.92875308 248.21136578 -556.1170516 247.46469688 C-557.31027995 242.70816919 -558.37281355 237.97190225 -559.22071838 233.1398468 C-559.40002899 232.12226288 -559.40002899 232.12226288 -559.58296204 231.0841217 C-559.95848337 228.9321027 -560.32337224 226.77852188 -560.68556213 224.6242218 C-560.81312897 223.87430969 -560.9406958 223.12439758 -561.0721283 222.35176086 C-564.59782953 201.51799683 -567.0800184 180.51219913 -567.62306213 159.3742218 C-567.65593323 158.20077209 -567.65593323 158.20077209 -567.68946838 157.00361633 C-568.82597685 109.71539331 -559.97289237 63.1279263 -542.87306213 19.1242218 C-542.40102356 17.90299622 -541.92898499 16.68177063 -541.44264221 15.42353821 C-540.76624695 13.72076721 -540.76624695 13.72076721 -540.07618713 11.9835968 C-539.67561096 10.97264954 -539.27503479 9.96170227 -538.86231995 8.92012024 C-537.64342199 6.41604855 -536.7510255 5.12127793 -534.62306213 3.3742218 C-531.63637848 3.08564935 -528.85946311 2.9827901 -525.87228394 3.01345825 C-524.96725559 3.01089498 -524.06222724 3.0083317 -523.1297738 3.00569075 C-520.08479582 3.00073328 -517.0403092 3.01727821 -513.99537659 3.03364563 C-511.81762199 3.03449148 -509.63986653 3.03401759 -507.46211243 3.03231812 C-501.5388508 3.03145509 -495.61577031 3.04913066 -489.6925509 3.07003999 C-483.5065707 3.08875556 -477.32058666 3.09055318 -471.13458252 3.09411621 C-459.41549867 3.10345175 -447.69649847 3.12808595 -435.9774515 3.15816468 C-422.63786444 3.19190183 -409.29827705 3.20818289 -395.95865691 3.22325099 C-368.51341222 3.25463418 -341.06824186 3.30742398 -313.62306213 3.3742218 C-312.80938987 6.99024419 -312.41223683 8.82239835 -314.17774963 12.1398468 C-314.54070129 12.85100647 -314.90365295 13.56216614 -315.27760315 14.2948761 C-315.68035461 15.06356018 -316.08310608 15.83224426 -316.49806213 16.6242218 C-331.41675992 46.78714822 -338.3839877 79.90485073 -344.02101135 112.86982727 C-344.39031881 115.01947821 -344.76979034 117.16745056 -345.16651917 119.31221008 C-353.33937471 163.52029762 -345.3668411 210.84141395 -336.62306213 254.3742218 C-319.10223931 254.40671949 -301.58141098 254.42590244 -284.06056213 254.4367218 C-283.37862667 254.43715611 -282.69669121 254.43759041 -281.99409103 254.43803787 C-224.36923953 254.47368582 -166.74684805 254.20605148 -109.12306213 253.8742218 C-108.0841739 253.86824809 -107.04528567 253.86227437 -105.97491598 253.85611963 C-79.19092491 253.70197968 -52.40697426 253.54151041 -25.62306213 253.3742218 C-26.03528818 251.83393027 -26.03528818 251.83393027 -26.45584202 250.26252174 C-26.81991744 248.90023485 -27.1839703 247.53794192 -27.54800415 246.17564392 C-27.81908233 245.16311349 -27.81908233 245.16311349 -28.09563684 244.13012791 C-29.40313442 239.23462983 -30.64940581 234.33057947 -31.80665588 229.3976593 C-32.07778198 228.24901398 -32.07778198 228.24901398 -32.35438538 227.0771637 C-48.47416149 158.44063472 -55.79993121 72.53017144 -17.06056213 8.8039093 C-12.15526916 1.9610256 -8.55420472 -0.0766612 0 0 Z " fill="#365CA3" transform="translate(971.6230621337891,443.6257781982422)"/>
<path d="M0 0 C1.06845406 -0.00021904 1.06845406 -0.00021904 2.15849304 -0.0004425 C4.51763941 0.00025528 6.87670724 0.00804142 9.23583984 0.01586914 C10.86965898 0.0177338 12.50347868 0.01915747 14.13729858 0.02015686 C18.44125914 0.0239783 22.74518605 0.03380541 27.0491333 0.04486084 C31.43948918 0.05508297 35.82985049 0.0596562 40.22021484 0.06469727 C48.8374178 0.075428 57.45459339 0.09249996 66.07177734 0.11352539 C65.43696351 3.69816344 64.99513945 5.60627922 62.38427734 8.17602539 C49.27342056 22.82380079 47.31102662 42.7892254 47.54833984 61.47290039 C47.55476303 63.45647618 47.5589899 65.44006008 47.56121826 67.42364502 C47.57373319 72.78151796 47.61777619 78.13870448 47.66814423 83.49633789 C47.71686186 89.2254177 47.73725787 94.95461274 47.76171875 100.68383789 C47.81293281 111.54548616 47.89215521 122.40674101 47.98343086 133.26811981 C48.05184101 141.45417374 48.10984274 149.6402286 48.15966797 157.82641602 C49.01345814 307.2469859 49.01345814 307.2469859 54.50927734 456.55102539 C54.56485809 457.63852081 54.62043884 458.72601624 54.67770386 459.84646606 C55.69579417 479.40293412 56.77236158 499.40465384 62.25927734 518.30102539 C62.55970947 519.37143066 62.8601416 520.44183594 63.16967773 521.54467773 C67.85555138 537.79755874 74.05744848 553.22806467 82.07177734 568.11352539 C82.68537109 569.28012695 83.29896484 570.44672852 83.93115234 571.64868164 C91.73120898 585.94341353 101.8003009 598.42068534 113.07177734 610.11352539 C114.06564453 611.18473633 114.06564453 611.18473633 115.07958984 612.27758789 C133.29516087 631.40774826 158.593946 644.04392336 183.25927734 652.55102539 C184.6642749 653.04638794 184.6642749 653.04638794 186.09765625 653.55175781 C200.56777572 658.32227779 215.97405401 658.55709279 231.07177734 659.17602539 C232.49780273 659.23814209 232.49780273 659.23814209 233.95263672 659.30151367 C247.23931994 659.87436575 260.52471748 660.20612921 273.82177734 660.39086914 C274.53573669 660.40095568 275.24969604 660.41104221 275.98529053 660.4214344 C283.11081029 660.52100493 290.23624854 660.60949875 297.36224365 660.66655064 C299.39209365 660.68388195 301.42186317 660.7051395 303.45166016 660.72779846 C305.93531251 660.75473721 308.41905755 660.77459582 310.90283203 660.7855072 C322.88015302 660.92816784 334.29454757 662.48601245 345.69677734 666.17602539 C347.39712164 666.70914086 349.09763602 667.24171422 350.79833984 667.77368164 C351.52617676 668.00708252 352.25401367 668.2404834 353.00390625 668.48095703 C353.68630371 668.68970459 354.36870117 668.89845215 355.07177734 669.11352539 C355.75288574 669.32525391 356.43399414 669.53698242 357.13574219 669.75512695 C360.39401722 670.35829817 363.01726921 668.93055704 366.07177734 667.80102539 C392.20737311 658.54757745 422.58976259 660.95916118 449.92136042 660.98279203 C453.88968366 660.98511127 457.85800298 660.9815999 461.82632542 660.97891521 C469.64742202 660.97454593 477.4685091 660.97555812 485.28960604 660.97840567 C491.76897404 660.98061957 498.24833875 660.98054816 504.72770691 660.97901726 C506.13368786 660.97868633 506.13368786 660.97868633 507.56807246 660.97834872 C509.47899758 660.97789028 511.3899227 660.97742795 513.30084781 660.9769618 C535.69634707 660.97186156 558.09183933 660.97772903 580.48733724 660.98544001 C587.87796784 660.98794451 595.26859843 660.9898884 602.65922928 660.99148178 C604.22622669 660.99181963 604.22622669 660.99181963 605.82488061 660.99216431 C606.87044977 660.99238941 607.91601893 660.99261451 608.99327201 660.99284643 C671.68613151 661.00636708 734.37895059 661.04849535 797.07177734 661.11352539 C798.1076832 661.11459207 799.14358906 661.11565875 800.210886 661.11675775 C849.4285924 661.16746533 898.64622824 661.23436034 947.86382389 661.35245514 C949.18588788 661.35562482 949.18588788 661.35562482 950.53466023 661.35885853 C957.91916598 661.3765766 957.91916598 661.3765766 961.14535823 661.3843751 C974.247279 661.41590833 987.34919786 661.43971807 1000.45114136 661.45941162 C1015.26517279 661.48174037 1030.07913709 661.51466659 1044.89311063 661.56202632 C1053.10791892 661.58802944 1061.32265206 661.60629932 1069.53749936 661.61290717 C1075.64949747 661.61877235 1081.76134855 661.6402876 1087.87328541 661.66780877 C1090.32971914 661.67651996 1092.7861766 661.6803165 1095.24262512 661.67853141 C1112.44860437 661.66996057 1129.31306176 662.08195742 1145.44677734 668.73852539 C1147.01650023 669.35721096 1148.58679186 669.97445591 1150.15771484 670.59008789 C1151.14843994 670.99348389 1151.14843994 670.99348389 1152.15917969 671.4050293 C1154.15385009 672.14392814 1155.96655969 672.78353102 1158.07177734 673.11352539 C1161.25263626 671.65055195 1164.23999993 670.03032596 1167.26123047 668.26977539 C1182.11683513 660.20655634 1199.67312584 661.67929199 1216.01583958 661.70620918 C1219.53166486 661.70801873 1223.04739005 661.69048132 1226.56317139 661.67443848 C1235.48269275 661.63685587 1244.402189 661.62383497 1253.32177734 661.61352539 C1262.94422179 661.60239082 1272.56654005 661.58664277 1282.18889976 661.54281282 C1285.66969763 661.52765251 1289.15028012 661.51846048 1292.63111115 661.5242157 C1324.27871613 661.57350409 1355.76553117 658.06901316 1381.07177734 637.11352539 C1381.90966797 636.42645508 1382.74755859 635.73938477 1383.61083984 635.03149414 C1417.4474147 605.96137178 1428.32769271 558.53356814 1431.66708374 515.88859558 C1432.10615362 509.97438437 1432.3684185 504.06047741 1432.58203125 498.13427734 C1432.64527053 496.39210796 1432.64527053 496.39210796 1432.70978737 494.61474323 C1433.21503376 479.93023653 1433.44482751 465.24085234 1433.68045449 450.55012274 C1433.74925588 446.30003337 1433.82132389 442.04999912 1433.89299011 437.79995728 C1434.01628206 430.46486064 1434.13769328 423.12973493 1434.25784302 415.79458618 C1434.43267577 405.12539009 1434.61130035 394.4562598 1434.79093468 383.78714359 C1435.08237508 366.47636941 1435.3720451 349.16556622 1435.66015625 331.85473633 C1435.67722063 330.82957377 1435.69428501 329.80441122 1435.7118665 328.74818313 C1435.88234214 318.50594641 1436.05266914 308.26370722 1436.22288609 298.0214662 C1436.59624484 275.55812424 1436.97151102 253.09481694 1437.35234833 230.63160038 C1437.50699453 221.50405748 1437.66034328 212.37649708 1437.80999756 203.24887085 C1438.4119272 166.56733276 1439.09260218 129.88985051 1440.03438067 93.21526122 C1440.09813458 90.72625861 1440.1610591 88.23723612 1440.22384834 85.748209 C1441.91478555 19.0817469 1441.91478555 19.0817469 1458.07177734 2.11352539 C1461.77397482 -0.35460626 1463.60356485 -0.12894656 1468.02172852 -0.11352539 C1468.72442368 -0.11381744 1469.42711884 -0.1141095 1470.15110779 -0.1144104 C1472.47244641 -0.11301769 1474.79346358 -0.09745948 1477.11474609 -0.08178711 C1478.7247144 -0.07805677 1480.33468498 -0.07520989 1481.94465637 -0.07321167 C1486.18124667 -0.06557688 1490.41769974 -0.04592974 1494.65423584 -0.02380371 C1498.97764225 -0.00334196 1503.30107084 0.00579075 1507.62451172 0.01586914 C1516.10699655 0.03731633 1524.58936988 0.07145038 1533.07177734 0.11352539 C1533.64599609 2.02416992 1533.64599609 2.02416992 1534.07177734 4.11352539 C1532.88427734 5.54321289 1532.88427734 5.54321289 1531.07177734 6.98852539 C1521.82700226 15.66240799 1518.37149543 29.25090251 1515.07177734 41.11352539 C1514.8982052 41.73071001 1514.72463306 42.34789463 1514.54580116 42.98378181 C1512.01492543 54.35476385 1512.78287496 66.92907772 1512.546875 78.52416992 C1512.50265607 80.56560961 1512.45810615 82.60704215 1512.41325378 84.64846802 C1512.31741965 89.03896237 1512.22376067 93.42949577 1512.13176346 97.82007217 C1511.98387305 104.86963399 1511.83005332 111.91905943 1511.67538452 118.96847534 C1511.26345451 137.78527539 1510.85954046 156.60224653 1510.45822781 175.41927576 C1509.35759154 227.00361268 1508.23692069 278.58418588 1506.52880859 330.15258789 C1506.48404349 331.51468879 1506.48404349 331.51468879 1506.43837404 332.90430689 C1499.07728805 556.76896278 1499.07728805 556.76896278 1472.07177734 622.11352539 C1471.71857422 622.83765625 1471.36537109 623.56178711 1471.00146484 624.30786133 C1464.34356002 637.82125268 1456.44324962 649.86990226 1446.13427734 660.89477539 C1444.29731986 662.87089632 1442.5936657 664.9030716 1440.88427734 666.98852539 C1415.03924035 696.45780895 1374.23944144 712.74279422 1336.07177734 717.11352539 C1335.11400391 717.22438477 1334.15623047 717.33524414 1333.16943359 717.44946289 C1317.89537645 718.904135 1302.60343222 718.43163289 1287.37231445 716.82958984 C1277.2787664 715.82286758 1267.20371488 715.92101562 1257.07177734 716.11352539 C1260.16716394 719.29672437 1263.29652109 722.1677412 1266.82177734 724.86352539 C1280.81071241 735.99673111 1291.14978009 749.143302 1297.07177734 766.11352539 C1297.48427734 767.2646582 1297.89677734 768.41579102 1298.32177734 769.60180664 C1306.60510382 796.83899473 1300.02211203 825.24531893 1287.25927734 849.80102539 C1270.54242446 880.78095453 1241.29531638 902.63887449 1208.02880859 913.05493164 C1196.72315267 916.20884495 1184.81852498 918.68670834 1173.07177734 919.11352539 C1172.18361328 919.15348633 1171.29544922 919.19344727 1170.38037109 919.23461914 C1148.48758541 919.74098289 1127.672182 914.67835168 1108.07177734 905.11352539 C1107.07662109 904.63012695 1106.08146484 904.14672852 1105.05615234 903.64868164 C1077.94560139 889.66738322 1057.20512946 864.68403134 1047.91357422 835.77294922 C1039.74438203 808.8115668 1041.08445357 778.60624193 1053.95849609 753.29711914 C1059.26996459 743.38132251 1066.24984355 735.04194706 1073.75927734 726.73852539 C1074.21085205 726.23820801 1074.66242676 725.73789063 1075.12768555 725.22241211 C1077.90970989 722.2020452 1080.8464834 719.64429099 1084.07177734 717.11352539 C1035.47910293 717.04403075 986.886434 716.9915859 938.29371922 716.9603294 C932.48577042 716.95657971 926.67782171 716.95269651 920.86987305 716.94873047 C919.71418143 716.94794354 918.55848982 716.94715661 917.36777725 716.94634583 C901.20745519 716.93506631 885.04715549 716.91662151 868.88684796 716.89232241 C841.03833812 716.85045717 813.18985186 716.82270758 785.34130859 716.82055664 C784.25671854 716.82044092 783.17212848 716.82032521 782.05467206 716.82020599 C723.27321631 716.81601222 664.5603295 717.12476495 605.81231594 719.26379299 C603.97652213 719.33051081 602.14072739 719.39720273 600.30493164 719.46386719 C599.42653063 719.49600504 598.54812962 719.52814289 597.64311039 719.56125462 C583.1028354 720.08371691 568.57350415 720.25873217 554.02416992 720.26513672 C553.05816656 720.26663896 552.09216319 720.2681412 551.09688699 720.26968896 C531.5249688 720.28469907 511.70310097 719.94038455 492.25537109 717.55102539 C487.5039748 716.98445264 482.78857541 717.00282456 478.00927734 717.05102539 C477.14367187 717.05553711 476.27806641 717.06004883 475.38623047 717.06469727 C473.28138196 717.07632626 471.17656976 717.09425466 469.07177734 717.11352539 C469.45414551 717.54995361 469.83651367 717.98638184 470.23046875 718.43603516 C493.70559548 745.4825102 504.04912663 778.52123828 502.07177734 814.11352539 C498.834686 843.49473495 481.14103778 869.40078497 458.77880859 887.89477539 C443.40114718 900.04258452 425.01828251 909.17812352 406.07177734 914.11352539 C405.31912598 914.31945313 404.56647461 914.52538086 403.79101562 914.73754883 C370.18940587 923.61291665 332.64797688 918.91038879 302.58007812 901.59130859 C296.59522354 897.98777855 291.28882045 893.75360579 286.07177734 889.11352539 C285.24419922 888.4290332 284.41662109 887.74454102 283.56396484 887.03930664 C263.26882731 869.82979346 249.47808076 843.40630869 246.07177734 817.11352539 C243.71033282 786.29730354 249.34366397 758.24165868 269.42300415 734.0022583 C272.42124794 730.56765509 275.6730713 727.38971711 278.91943359 724.19165039 C279.60976685 723.5066748 280.3001001 722.82169922 281.01135254 722.1159668 C282.69545318 720.44571208 284.38227947 718.77831745 286.07177734 717.11352539 C285.46045456 717.09513107 284.84913177 717.07673676 284.21928406 717.05778503 C127.27316976 712.28887205 127.27316976 712.28887205 66.07177734 661.11352539 C65.18449951 660.37851807 65.18449951 660.37851807 64.27929688 659.62866211 C42.48428956 641.52338367 25.15588409 620.25944565 12.07177734 595.11352539 C11.74258301 594.49703125 11.41338867 593.88053711 11.07421875 593.24536133 C-13.01921694 547.69165231 -17.68176873 492.87484543 -21.05322266 442.36352539 C-21.12887451 441.23092285 -21.20452637 440.09832031 -21.2824707 438.93139648 C-22.69859953 416.05891571 -23.12380687 393.14889551 -23.39681172 370.23923683 C-23.42502253 367.89869064 -23.45446532 365.55816277 -23.48425102 363.21763611 C-24.07480793 316.72452617 -24.47793645 270.22916065 -24.89101446 223.73421001 C-24.96818952 215.07319413 -25.04781739 206.41220305 -25.12866211 197.7512207 C-25.40059329 168.57223587 -25.65468898 139.39321512 -25.86256397 110.21369648 C-25.89773568 105.28036908 -25.93381201 100.34705425 -25.97304535 95.41375732 C-26.05169717 85.52079359 -26.11781399 75.62799857 -26.15511894 65.73478699 C-26.16616228 62.93555318 -26.18395469 60.1365048 -26.20839119 57.33735657 C-26.23817909 53.59792154 -26.24889309 49.85892319 -26.25415039 46.11938477 C-26.26665014 45.07544052 -26.27914989 44.03149628 -26.29202843 42.95591736 C-26.25274076 28.91226883 -22.72739814 14.67581963 -12.67822266 4.42602539 C-8.30688805 0.33425288 -6.03667246 -0.01037229 0 0 Z M355.00927734 723.05102539 C354.00900513 723.66337036 354.00900513 723.66337036 352.98852539 724.28808594 C329.61832855 738.8891992 311.31088596 761.15015571 303.81396484 787.88696289 C299.21087665 807.89828315 300.23307428 826.37548725 311.07177734 844.11352539 C322.39151897 860.81131854 339.00148748 871.66495335 358.63427734 875.92602539 C378.44355254 879.44187038 397.9217476 874.68684275 415.02880859 864.24633789 C431.88134134 852.43442148 445.19833665 834.95730946 449.63818359 814.60571289 C452.17763233 794.1528555 449.04217225 775.33850986 436.19677734 758.80102539 C434.84288785 757.22019823 433.46804724 755.65704786 432.07177734 754.11352539 C431.41822266 753.3671582 430.76466797 752.62079102 430.09130859 751.85180664 C413.84448341 734.38570753 388.94945679 724.16373674 366.07177734 719.11352539 C361.3811279 719.11352539 358.86167494 720.67198898 355.00927734 723.05102539 Z M1156.33349609 720.94946289 C1155.60267822 721.34915283 1154.87186035 721.74884277 1154.11889648 722.16064453 C1153.34022217 722.59884521 1152.56154785 723.0370459 1151.75927734 723.48852539 C1150.95546631 723.93897217 1150.15165527 724.38941895 1149.32348633 724.85351562 C1125.75658342 738.29461728 1103.86038855 755.71841127 1095.03271484 782.23461914 C1090.31897167 799.87811579 1092.83722142 817.35856298 1101.45458984 833.41430664 C1113.25015981 853.10208164 1131.35982165 865.65921346 1153.19995117 871.70239258 C1173.92020372 876.80794289 1194.23730067 872.12603918 1212.1796875 861.3190918 C1216.86106304 858.33630051 1221.00299542 854.87286921 1225.07177734 851.11352539 C1225.84779297 850.4290332 1226.62380859 849.74454102 1227.42333984 849.03930664 C1240.55343099 836.83418755 1248.84167026 820.02561098 1250.07177734 802.11352539 C1250.45733026 783.65234453 1242.55065216 767.86182319 1230.20654297 754.66186523 C1212.23785872 736.29930583 1187.83465183 725.05360763 1163.07177734 719.11352539 C1159.94129269 719.11352539 1158.99251907 719.49440751 1156.33349609 720.94946289 Z " fill="#365CA3" transform="translate(73.92822265625,945.886474609375)"/>
<path d="M0 0 C4.54446002 -0.00399218 9.08890957 -0.01355973 13.63336265 -0.02221286 C24.52562897 -0.04170016 35.41789585 -0.05199324 46.31017515 -0.06094065 C50.42733687 -0.06446814 54.54449787 -0.06861132 58.66165898 -0.07278031 C76.86132524 -0.09119644 95.06099158 -0.10694973 113.26066577 -0.11467826 C117.68344137 -0.11658736 122.10621696 -0.11850786 126.52899253 -0.12046421 C127.62791775 -0.12094795 128.72684296 -0.12143169 129.85906894 -0.12193009 C147.71582762 -0.13025567 165.57251991 -0.15565809 183.42924952 -0.18804488 C201.83485795 -0.22115194 220.24043254 -0.23912906 238.6460709 -0.2423225 C248.95198599 -0.24448081 259.25780327 -0.25313321 269.56368911 -0.27878368 C278.32250981 -0.30053803 287.08120872 -0.30851661 295.84005337 -0.2988169 C300.30008901 -0.2942902 304.75987351 -0.29606421 309.21987426 -0.31557834 C313.31338158 -0.33333419 317.40645678 -0.33211332 321.49996949 -0.31668105 C322.96902843 -0.3143241 324.43811833 -0.31852736 325.90713029 -0.3305097 C348.19038917 -0.50080814 372.36496823 6.48918166 389.27288902 21.46376431 C391.65346033 24.07702304 392.68772472 26.40200229 393.33148277 29.86220181 C392.19122786 37.41639059 387.15418839 42.23027908 381.33148277 46.79970181 C363.99345879 59.04334343 347.48048387 61.57226616 326.83148277 62.17470181 C326.84308433 62.89270962 326.85468589 63.61071743 326.86663902 64.35048306 C326.91531426 69.9342289 326.84521081 75.45420224 326.47975242 81.0271188 C325.62498554 94.35795356 325.64401572 107.70080498 325.64618003 121.05360806 C325.64626147 123.80107058 325.63927255 126.54836699 325.62567222 129.29579556 C323.95116559 166.47140125 323.95116559 166.47140125 336.83148277 200.17470181 C337.35742027 200.84630337 337.88335777 201.51790493 338.42523277 202.20985806 C346.31408334 211.80198318 355.21940737 217.09906805 367.68522727 218.34900296 C368.45089498 218.42882678 369.21656268 218.5086506 370.00543243 218.59089333 C381.36339635 219.64275488 392.77742692 219.42809903 404.17157066 219.38588345 C406.78387475 219.38367772 409.39617974 219.38237581 412.00848472 219.38190091 C417.60174476 219.37955604 423.19495417 219.37005289 428.78819549 219.35559666 C436.90194056 219.33473031 445.0156645 219.32620099 453.12943285 219.32067531 C466.33473658 219.31144982 479.54001531 219.29403873 492.74530113 219.27064908 C493.53303971 219.26925576 494.3207783 219.26786245 495.13238775 219.26642691 C495.92102482 219.26503138 496.7096619 219.26363585 497.52219707 219.26219803 C508.68315112 219.24246188 519.84410596 219.22461261 531.00506675 219.20912564 C531.78970446 219.20803479 532.57434217 219.20694394 533.38275678 219.20582003 C546.53565847 219.18770307 559.68856273 219.17377871 572.84147149 219.16195399 C580.91919704 219.1544292 588.99689686 219.14278085 597.07460754 219.12549233 C603.28676358 219.11239365 609.4989168 219.1044348 615.71108329 219.09818089 C618.23392821 219.0947519 620.75677156 219.08958519 623.27960861 219.08241284 C664.98622642 218.9665951 664.98622642 218.9665951 684.89398277 221.42470181 C685.95794273 221.55401089 687.02190269 221.68331997 688.11810386 221.81654751 C747.90840528 229.50134679 803.6564288 259.13882239 840.83148277 307.17470181 C841.2554232 307.72223111 841.67936363 308.2697604 842.11615074 308.8338815 C849.7893577 318.81998424 856.55005231 329.26363302 862.83148277 340.17470181 C863.25284507 340.90608365 863.67420738 341.63746548 864.10833824 342.3910104 C890.04828834 388.06193387 899.31008336 439.51293748 903.83148277 491.17470181 C903.94169761 492.39141568 903.94169761 492.39141568 904.05413902 493.63270962 C906.01704188 515.8824224 906.65554221 539.09447993 899.83148277 560.54970181 C899.46881309 561.71529629 899.46881309 561.71529629 899.09881675 562.90443814 C895.7523895 572.65820535 890.74462588 580.83972989 885.83148277 590.17470181 C860.09148277 590.17470181 834.35148277 590.17470181 807.83148277 590.17470181 C810.80148277 586.21470181 810.80148277 586.21470181 813.83148277 582.17470181 C819.72393374 572.97857887 824.18959454 563.45935281 827.83148277 553.17470181 C828.18170494 552.1878439 828.18170494 552.1878439 828.5390023 551.18104947 C833.93267493 535.68970202 835.21645958 520.82938439 835.14398277 504.54970181 C835.14215995 503.69809475 835.14033714 502.8464877 835.13845909 501.96907437 C835.08321537 486.54869857 834.17627012 471.43696497 831.83148277 456.17470181 C831.67582847 455.14345181 831.52017417 454.11220181 831.35980308 453.04970181 C824.51161454 409.74618624 806.46257451 364.06116616 775.83148277 332.17470181 C775.37225425 331.68437466 774.91302574 331.19404751 774.43988121 330.68886197 C738.75385913 292.6775228 689.72026542 277.45285065 638.83148277 275.17470181 C626.91833691 274.82329235 614.99158661 274.93356914 603.07489729 274.97188866 C598.32763847 274.98483912 593.58037397 274.98579183 588.8331002 274.98823941 C580.60685486 274.99398128 572.3806461 275.00681796 564.15441787 275.02437222 C552.11205977 275.0498564 540.06971457 275.06172513 528.02733386 275.07023895 C508.28406131 275.08435832 488.54080509 275.10590292 468.79754722 275.13368618 C467.02979257 275.13616962 467.02979257 275.13616962 465.2263257 275.13870323 C454.56337431 275.15375529 443.90042367 275.16930741 433.23747337 275.1851083 C400.02176862 275.23431973 366.80607252 275.2768341 333.59033626 275.29755554 C330.19475458 275.29970677 326.79917306 275.30205107 323.40359151 275.30440176 C263.72577418 275.34377027 204.07451726 275.04694455 144.4058507 274.00926856 C103.83592954 273.30393896 63.28165338 272.96161632 22.70648277 272.94423306 C22.00148044 272.94391729 21.29647811 272.94360151 20.57011208 272.94327617 C2.72139439 272.93586929 -15.1272874 272.94906896 -32.97599 272.97160161 C-43.43186803 272.98473665 -53.88774273 272.99331267 -64.3436271 272.99946988 C-139.12569556 273.04469299 -213.90810266 273.1582121 -288.68942106 273.509152 C-295.50942863 273.54100672 -302.32944473 273.56906771 -309.14947426 273.59575284 C-317.28593788 273.6279511 -325.42232571 273.66769902 -333.55870318 273.71719092 C-337.59877659 273.74175875 -341.63881049 273.76397762 -345.67893517 273.77809727 C-385.04495847 273.92224188 -425.20592096 275.48282228 -461.16851723 293.17470181 C-461.79951333 293.48133755 -462.43050942 293.78797329 -463.08062661 294.10390103 C-494.67918761 309.63744439 -519.10072722 335.05870828 -535.16851723 366.17470181 C-535.51511391 366.84195279 -535.86171059 367.50920376 -536.2188102 368.19667447 C-555.04898816 404.9460354 -559.76236048 447.17834727 -560.55294335 487.9455415 C-560.599681 490.3038802 -560.65243535 492.66201842 -560.70687783 495.02019131 C-560.86127881 501.71328293 -561.01271236 508.40637747 -561.14263833 515.09999478 C-561.22320922 519.22843832 -561.31685711 523.35642086 -561.41846001 527.48439801 C-561.45423721 529.03325312 -561.48544643 530.5822223 -561.51150048 532.13127148 C-561.83734412 551.2422096 -563.6840669 571.48358926 -577.16851723 586.17470181 C-577.7169529 586.86457181 -578.26538857 587.5544418 -578.8304435 588.26521695 C-582.06470034 590.9066069 -584.18046813 590.65737801 -588.32379067 590.62880337 C-589.03638543 590.62938748 -589.74898018 590.62997159 -590.48316872 590.63057339 C-592.83191033 590.6277929 -595.17937314 590.59670504 -597.52789223 590.56532681 C-599.15884628 590.55786424 -600.78980931 590.55217138 -602.42077553 590.54817593 C-606.708504 590.53292073 -610.99568842 590.49364035 -615.28320229 590.44936001 C-619.66026366 590.40840458 -624.03741314 590.39016436 -628.41461098 590.37001431 C-636.99949576 590.32714558 -645.58393877 590.25889616 -654.16851723 590.17470181 C-653.53370339 586.59006376 -653.09187934 584.68194798 -650.48101723 582.11220181 C-642.27115454 572.93993895 -639.16207897 560.83211193 -636.16851723 549.17470181 C-635.98160317 548.51792447 -635.79468911 547.86114712 -635.60211098 547.18446743 C-633.87848809 540.56897958 -633.81812849 533.97489676 -633.70547402 527.16762173 C-633.64129516 523.48965926 -633.5392538 519.81274122 -633.43804848 516.13563931 C-633.40739045 515.00814267 -633.40739045 515.00814267 -633.37611306 513.85786831 C-631.18905856 437.05186539 -617.42833904 350.6454896 -559.16851723 295.17470181 C-558.38476723 294.39095181 -557.60101723 293.60720181 -556.79351723 292.79970181 C-555.92726723 291.93345181 -555.06101723 291.06720181 -554.16851723 290.17470181 C-553.56910317 289.54048306 -552.96968911 288.90626431 -552.35211098 288.25282681 C-518.45475251 253.04452077 -468.6844762 231.5025127 -421.16851723 223.17470181 C-419.90563881 222.94943814 -419.90563881 222.94943814 -418.6172477 222.71962368 C-393.58504737 218.38479109 -368.12510025 217.86321877 -342.78471184 217.98654771 C-339.17283852 218.00172135 -335.56094969 218.00456342 -331.94905007 218.0089761 C-325.72625428 218.01804737 -319.50351076 218.03411206 -313.28074372 218.05493748 C-304.27122858 218.08481037 -295.26172882 218.10018628 -286.25217361 218.11174958 C-271.60830615 218.13064585 -256.96446078 218.15633894 -242.32061684 218.18861783 C-241.44896091 218.19053576 -240.57730498 218.19245369 -239.67923523 218.19442975 C-229.93402014 218.21602045 -220.1888099 218.23922995 -210.44360268 218.26411831 C-206.89577152 218.27315372 -203.34794031 218.28216956 -199.80010903 218.29115689 C-198.48652773 218.29448937 -198.48652773 218.29448937 -197.14640944 218.29788918 C-182.52760356 218.33464961 -167.90880331 218.35969397 -153.28996009 218.37562662 C-144.30318434 218.3859233 -135.31654195 218.40624044 -126.32982219 218.43974423 C-120.18189875 218.46193226 -114.03401582 218.47326826 -107.88605326 218.47617955 C-104.34614335 218.47822027 -100.80642274 218.48512237 -97.2665664 218.50540173 C-93.42088383 218.52732961 -89.57540674 218.52567901 -85.7296592 218.52200711 C-84.62489218 218.53210987 -83.52012515 218.54221264 -82.38188034 218.55262154 C-68.74652881 218.49072078 -58.61896026 215.27315541 -48.68804848 205.81142056 C-29.99171221 186.2000923 -32.81177478 153.39116157 -32.91137612 128.21340573 C-32.91858287 126.15596342 -32.92176804 124.09854928 -32.92388833 122.04109585 C-32.95079421 101.03786951 -33.44382272 80.11414454 -35.16851723 59.17470181 C-36.7240934 59.19826748 -36.7240934 59.19826748 -38.31109536 59.22230923 C-42.23988679 59.27751372 -46.16864577 59.31137302 -50.09771645 59.33949673 C-51.78299686 59.35438097 -53.46823999 59.37469502 -55.15338051 59.40102017 C-75.69458218 59.71336402 -98.06627306 57.29090068 -114.16851723 43.17470181 C-118.01892842 39.2689459 -120.84451616 36.19070848 -121.73101723 30.67470181 C-121.62880549 24.42842841 -117.44101229 20.32851645 -113.16851723 16.17470181 C-96.70769542 3.14794799 -73.21532491 1.21542397 -53.03019631 0.62326443 C-51.99171192 0.59189336 -51.99171192 0.59189336 -50.93224805 0.55988852 C-33.95649487 0.05541903 -16.98198351 0.01100394 0 0 Z M37.83148277 59.17470181 C37.86137102 59.84949959 37.89125926 60.52429738 37.92205322 61.21954358 C37.9613413 62.1087613 38.00062938 62.99797902 38.04110801 63.91414273 C38.0800197 64.79390145 38.11893138 65.67366017 38.15902221 66.58007824 C42.48913689 166.2920641 42.48913689 166.2920641 38.11587608 202.79098904 C37.83113625 205.1776062 37.562142 207.56550484 37.2980355 209.95448697 C37.21005195 210.74940548 37.1220684 211.544324 37.03141868 212.36333096 C36.96543983 212.96108334 36.89946098 213.55883572 36.83148277 214.17470181 C59.46301774 215.0900304 82.06175397 215.32575102 104.70987236 215.30902731 C109.33510105 215.30643896 113.96032807 215.30885829 118.58555686 215.31041348 C126.32809903 215.31221438 134.07063154 215.30988181 141.81317222 215.3050729 C150.71177195 215.29960915 159.61034883 215.30141664 168.50894803 215.30689931 C176.22698994 215.31146038 183.94502505 215.31206716 191.66306788 215.30946064 C196.23956839 215.30791746 200.8160582 215.3076499 205.39255798 215.31099713 C209.68651403 215.31392076 213.98044096 215.31181918 218.27439392 215.30610287 C219.83265212 215.30480014 221.39091285 215.30512598 222.94916999 215.30736554 C233.94181007 215.32168868 244.86159896 214.87942013 255.83148277 214.17470181 C255.22409643 209.29994846 255.22409643 209.29994846 254.60516441 204.42665493 C252.80525068 189.55571977 252.66802128 174.69267235 252.70648277 159.73720181 C252.70781211 158.23442181 252.70781211 158.23442181 252.70916831 156.70128262 C252.72856243 137.7280605 253.05935196 118.7644329 253.53946006 99.79764187 C253.57573005 98.20731389 253.57573005 98.20731389 253.61273277 96.58485806 C253.64083597 95.37133113 253.64083597 95.37133113 253.66950691 94.1332885 C253.82418276 86.90847235 253.85777993 79.68786206 253.84515464 72.46156704 C253.84367424 70.82175492 253.84367424 70.82175492 253.84216392 69.14881527 C253.8396203 66.49077455 253.83604597 63.8327397 253.83148277 61.17470181 C230.98417143 60.91142489 208.13683373 60.65055002 185.28946388 60.39239895 C174.67682965 60.2724337 164.0642048 60.15173385 153.45159996 60.029194 C144.18261733 59.92217044 134.91361903 59.81663776 125.64460051 59.71276772 C120.75406466 59.65791493 115.86353866 59.60240277 110.97303092 59.54509366 C86.59133601 59.25993955 62.21489379 59.11018784 37.83148277 59.17470181 Z " fill="#365CA3" transform="translate(686.1685172319412,31.825298190116882)"/>
</svg>
