<?xml version="1.0" encoding="UTF-8"?>
<svg version="1.1" xmlns="http://www.w3.org/2000/svg" width="1639" height="1896">
<path d="M0 0 C540.87 0 1081.74 0 1639 0 C1639 625.68 1639 1251.36 1639 1896 C1098.13 1896 557.26 1896 0 1896 C0 1270.32 0 644.64 0 0 Z " fill="#FEFEFE" transform="translate(0,0)"/>
<path d="M0 0 C0.88642858 -0.00226556 1.77285716 -0.00453111 2.68614721 -0.00686532 C5.6741193 -0.01322561 8.66204628 -0.01237467 11.65002441 -0.0115509 C13.78497883 -0.0145411 15.91993271 -0.0179433 18.05488586 -0.02172852 C23.86670273 -0.03058609 29.67850488 -0.03290734 35.49032784 -0.0335443 C40.33414603 -0.03449181 45.17796076 -0.03816821 50.02177763 -0.0417164 C61.44392286 -0.04986733 72.8660602 -0.05230002 84.28820801 -0.05158997 C96.09090661 -0.05098872 107.89355958 -0.06154842 119.69624662 -0.07733363 C129.8134341 -0.09038498 139.93060661 -0.09577489 150.04780245 -0.09513456 C156.09753299 -0.0948789 162.14722299 -0.09776745 168.19694519 -0.10831261 C173.88333851 -0.11795344 179.56965217 -0.11810054 185.2560482 -0.11079597 C187.34831037 -0.10974517 189.4405774 -0.11214214 191.53283119 -0.11815643 C194.37850958 -0.12580955 197.22390824 -0.12127631 200.06958008 -0.11352539 C200.90672594 -0.11866895 201.74387179 -0.12381252 202.60638571 -0.12911195 C208.30651868 -0.09455859 208.30651868 -0.09455859 210.53479004 2.13371277 C210.28143871 7.79480461 207.67469006 12.57719959 205.34729004 17.63371277 C195.18066062 40.41824419 185.22082718 64.55498855 180.53479004 89.13371277 C180.39041504 89.86203308 180.24604004 90.59035339 180.09729004 91.34074402 C170.06524416 142.48626364 173.96224646 193.31530761 186.63244629 243.5690155 C186.81617798 244.30071709 186.99990967 245.03241867 187.18920898 245.78629303 C187.63695796 247.56896188 188.08576306 249.3513654 188.53479004 251.13371277 C222.15428896 250.89714258 255.77377974 250.6594482 289.39326122 250.42041356 C293.4385657 250.39165231 297.48387023 250.36289961 301.5291748 250.33415222 C302.33391525 250.3284333 303.13865569 250.32271438 303.96778221 250.31682216 C315.91467527 250.23193986 327.86157226 250.14762725 339.80847168 250.06364441 C357.5925012 249.93860064 375.37652349 249.81256311 393.16053778 249.68536991 C395.47052742 249.66885369 397.78051722 249.65236 400.09050703 249.63586855 C433.67908323 249.39591925 467.2675004 249.14521462 500.85559082 248.84416199 C502.1697018 248.83240224 503.48381278 248.8206425 504.83774531 248.8085264 C516.01555043 248.70823987 527.19334589 248.606976 538.37109184 248.50027657 C539.50430872 248.48946759 540.6375256 248.47865861 541.80508238 248.46752208 C544.03275998 248.44619886 546.2604362 248.42473235 548.48811096 248.40311438 C553.68637549 248.35332036 558.88459799 248.30774433 564.08298779 248.2731905 C566.00679267 248.26014218 567.93059697 248.24700748 569.85440063 248.23377991 C570.77183943 248.2275555 571.68927823 248.2213311 572.63451821 248.21491808 C577.67199808 248.17508727 582.70557852 248.09279554 587.74134809 247.95571297 C589.90856065 247.89828354 592.07566338 247.85268028 594.2432394 247.8115015 C596.75043064 247.76053548 599.25733502 247.68709714 601.76293278 247.5842123 C607.0541919 247.50022657 610.56141945 247.55912253 614.74723816 251.00868225 C617.22010067 253.47401161 618.4301912 255.27797613 618.62072754 258.85636902 C618.6838916 259.72584167 618.74705566 260.59531433 618.81213379 261.49113464 C618.84436035 262.38381042 618.87658691 263.27648621 618.90979004 264.19621277 C618.96521973 265.06181824 619.02064941 265.92742371 619.07775879 266.81925964 C619.18862591 268.57637461 619.28646015 270.33436658 619.37043762 272.0929718 C619.53536713 275.14438964 619.76982591 278.18337987 620.01989746 281.22892761 C620.51317262 287.57130442 620.83631938 293.90557697 621.06213379 300.26261902 C621.10345932 301.40678787 621.14478485 302.55095673 621.18736267 303.72979736 C621.68584476 318.41846411 621.87456911 333.11246802 622.0670166 347.80766296 C622.10756315 350.83933471 622.15151605 353.87095336 622.19539833 356.90257835 C622.30884218 364.74583551 622.40394567 372.58909678 622.48773193 380.432724 C622.53041417 383.78956284 622.59458019 387.14508817 622.66711426 390.50138855 C622.69501745 392.29679258 622.72256026 394.09220228 622.74963379 395.88761902 C622.77312393 396.66072922 622.79661407 397.43383942 622.82081604 398.2303772 C622.87005544 402.9503929 622.16130655 406.18673752 619.53479004 410.13371277 C616.0904409 412.46639033 613.0212235 412.37726729 608.93620682 412.36419106 C608.27143733 412.36481037 607.60666784 412.36542969 606.92175382 412.36606777 C604.68434377 412.36568509 602.44725873 412.35091089 600.2098999 412.33625793 C598.59365224 412.33300058 596.9774026 412.33062644 595.36115241 412.32906187 C590.91211492 412.32218848 586.46320645 412.3027446 582.01421857 412.28130102 C577.21944327 412.26037457 572.42464402 412.25103062 567.62983704 412.24029541 C559.31994932 412.22009767 551.01011214 412.19252619 542.70026398 412.15997696 C530.68555321 412.11292659 518.67082947 412.07694945 506.65607354 412.04369371 C487.16395675 411.98943975 467.67187983 411.9262035 448.17980957 411.85734558 C429.24264798 411.79046711 410.3054802 411.72780218 391.36828613 411.67082214 C390.20142176 411.6673097 389.03455738 411.66379726 387.83233348 411.66017838 C381.97864436 411.64258392 376.124955 411.6250725 370.27126551 411.60760236 C321.69239575 411.4625129 273.11358158 411.30285746 224.53479004 411.13371277 C224.60542626 411.9575812 224.67606248 412.78144963 224.7488392 413.63028377 C224.84044515 414.71107033 224.9320511 415.79185689 225.02643299 416.90539455 C225.16332483 418.5124472 225.16332483 418.5124472 225.30298215 420.15196556 C225.55476321 423.39062786 225.66780796 426.60249157 225.68005371 429.85075378 C225.68962349 431.61063377 225.68962349 431.61063377 225.6993866 433.40606689 C225.70049942 434.6374791 225.70161224 435.8688913 225.70275879 437.13761902 C225.70608719 438.45495529 225.70941559 439.77229156 225.71284485 441.12954712 C225.71879072 443.91048499 225.72068997 446.69139205 225.72009277 449.47233582 C225.72001232 452.26146545 225.72683155 455.050428 225.74060059 457.83952332 C225.85875818 482.18051743 224.58870443 506.27151833 221.65979004 530.44621277 C221.53190094 531.51434204 221.53190094 531.51434204 221.40142822 532.60404968 C220.04127628 543.90478351 218.35785449 555.09961262 216.10754395 566.25968933 C215.46959774 569.46084137 214.86706541 572.66776309 214.26525879 575.87590027 C211.57059703 590.02881513 208.45610101 604.03149745 204.97229004 618.00871277 C204.78864899 618.75026611 204.60500793 619.49181946 204.415802 620.25584412 C193.00314507 666.14767868 175.74378359 710.93850509 156.03088379 753.86076355 C154.61747747 756.95282053 153.2274906 760.05406027 151.84729004 763.16105652 C146.96013966 774.13357645 141.72166911 784.82483105 136.00842285 795.38957214 C134.32835126 798.51813487 132.67728048 801.66122359 131.02697754 804.80558777 C123.41448075 819.27228414 115.47879921 833.43528548 106.53479004 847.13371277 C106.00144043 847.95162292 105.46809082 848.76953308 104.9185791 849.61222839 C97.82067468 860.41468473 90.1743162 870.57302949 81.89318848 880.49162292 C80.14294171 882.60739571 78.45740568 884.76872928 76.78479004 886.94621277 C70.30395889 895.33317072 63.52966949 903.36143228 56.30822754 911.11418152 C54.22782001 913.35348542 52.22158304 915.64655161 50.22619629 917.96183777 C46.36431819 922.39259698 42.26327593 926.55272545 38.09729004 930.69621277 C37.38508301 931.41228699 36.67287598 932.12836121 35.93908691 932.86613464 C31.30092541 937.49587078 26.49896142 941.85853028 21.53479004 946.13371277 C20.41305874 947.13153654 19.29319677 948.1314666 18.17541504 949.13371277 C8.81739733 957.44858674 -1.02209492 964.99092132 -11.10827637 972.39836121 C-13.24007421 973.96795092 -15.36071609 975.55102329 -17.47692871 977.14152527 C-40.95043674 994.71431939 -66.58183404 1009.43955138 -92.46520996 1023.13371277 C-94.09474609 1023.99875427 -94.09474609 1023.99875427 -95.75720215 1024.88127136 C-108.83502926 1031.8051535 -121.93189581 1038.45951725 -135.53308105 1044.29093933 C-138.56162903 1045.61195874 -141.54204736 1047.03142715 -144.52770996 1048.44621277 C-160.32900204 1055.87267019 -176.37017339 1062.77825751 -192.50918579 1069.43516541 C-193.9289862 1070.02205424 -195.3473691 1070.61238509 -196.76425171 1071.20628357 C-198.7580359 1072.04037536 -200.75710097 1072.86027014 -202.75817871 1073.67668152 C-203.90826416 1074.15129822 -205.05834961 1074.62591492 -206.24328613 1075.11491394 C-210.24153696 1076.37919375 -213.55019203 1076.98936901 -217.46887207 1075.2384491 C-218.05418701 1074.81845642 -218.63950195 1074.39846375 -219.24255371 1073.96574402 C-219.91302734 1073.49153015 -220.58350098 1073.01731628 -221.27429199 1072.5287323 C-221.97666992 1072.00650085 -222.67904785 1071.48426941 -223.40270996 1070.94621277 C-224.14633789 1070.40593445 -224.88996582 1069.86565613 -225.65612793 1069.30900574 C-233.29964548 1063.67018546 -240.44680364 1057.52500627 -247.46520996 1051.13371277 C-248.05979004 1050.59552917 -248.65437012 1050.05734558 -249.26696777 1049.50285339 C-257.20264258 1042.29486662 -264.86981052 1034.82326049 -272.46520996 1027.25871277 C-273.25443848 1026.4741571 -274.04366699 1025.68960144 -274.85681152 1024.88127136 C-278.98751829 1020.7391441 -282.94720842 1016.51413416 -286.76306152 1012.08097839 C-289.68866766 1008.73407154 -292.77620439 1005.54088062 -295.84020996 1002.32121277 C-300.90225322 996.9665085 -305.70259993 991.53864417 -310.29333496 985.77433777 C-312.74564273 982.79275494 -315.33611077 979.95814482 -317.96520996 977.13371277 C-322.21615774 972.55932331 -326.22991975 967.85058022 -330.14880371 962.98527527 C-332.7301866 959.80751893 -335.37306145 956.68769739 -338.02770996 953.57121277 C-342.61303579 948.17337728 -347.08156281 942.69725747 -351.46520996 937.13371277 C-352.33884331 936.03079703 -353.21254554 934.92793587 -354.08630371 933.82511902 C-373.10196155 909.77473179 -373.10196155 909.77473179 -372.46520996 902.13371277 C-370.43854758 898.42981255 -368.9847648 896.48008266 -365.46520996 894.13371277 C-363.33078127 893.76781071 -361.18090604 893.48983349 -359.02770996 893.25871277 C-350.27445867 892.21391781 -341.69437883 890.51513505 -333.07458496 888.68693542 C-331.38026754 888.3277173 -329.68499537 887.97296272 -327.98864746 887.62345886 C-310.80700346 884.06781309 -294.00227351 879.16279428 -277.17810059 874.22257996 C-274.9706235 873.57520043 -272.76154789 872.93317144 -270.54919434 872.30265808 C-264.68475894 870.60914809 -259.10232561 868.46704285 -253.46520996 866.13371277 C-251.28317461 865.25677265 -249.10086426 864.38051659 -246.91833496 863.50480652 C-226.7731152 855.33349152 -207.07381742 846.449958 -188.46520996 835.13371277 C-187.75864258 834.70509949 -187.0520752 834.27648621 -186.32409668 833.83488464 C-164.82724346 820.71135464 -144.58462335 805.87982839 -126.18005371 788.66105652 C-123.71449029 786.36577662 -121.19544653 784.15492811 -118.65270996 781.94621277 C-107.97163141 772.35046962 -98.28208684 761.44593216 -89.46520996 750.13371277 C-89.01033203 749.56201355 -88.5554541 748.99031433 -88.08679199 748.40129089 C-74.85336843 731.76102915 -62.55764379 714.10828702 -52.61071777 695.29240417 C-51.30777426 692.83702768 -49.97544594 690.39845389 -48.64489746 687.95793152 C-36.74295308 665.89386825 -27.57012496 642.82762355 -19.46520996 619.13371277 C-18.96126709 617.68472595 -18.96126709 617.68472595 -18.44714355 616.20646667 C-8.02167438 586.04834448 -1.29559715 554.84074567 3.21905518 523.29197693 C3.52121196 521.22652825 3.84283968 519.16522594 4.17199707 517.10392761 C9.58763225 482.81638438 7.88812918 447.72881506 7.53479004 413.13371277 C6.63825085 413.16234878 5.74171165 413.19098478 4.81800461 413.22048855 C-17.79851988 413.92935055 -40.39990039 414.32199303 -63.02681971 414.43702316 C-67.33579746 414.45972889 -71.64474829 414.48685137 -75.95370483 414.51322937 C-84.21136482 414.56298552 -92.46904333 414.60816825 -100.72674 414.65136492 C-107.36180168 414.68613114 -113.996851 414.72275232 -120.63189697 414.76039124 C-181.24337119 415.10303814 -241.85271162 415.27915744 -302.46520996 415.13371277 C-302.40593323 415.9354744 -302.34665649 416.73723602 -302.2855835 417.56329346 C-301.11773098 433.57204458 -300.10811351 449.51084072 -300.21520996 465.57121277 C-300.21797943 466.41359497 -300.2207489 467.25597717 -300.22360229 468.12388611 C-300.27482201 481.54660348 -300.80782964 494.80305499 -302.46520996 508.13371277 C-302.5670459 509.01478699 -302.66888184 509.89586121 -302.77380371 510.80363464 C-304.40247096 524.8081623 -306.94143629 538.58513199 -309.88171387 552.37004089 C-310.37347942 554.69924008 -310.83789703 557.03088195 -311.28942871 559.36808777 C-315.52706265 579.62604511 -323.31375936 599.51772708 -331.27770996 618.57121277 C-331.70898193 619.61140564 -332.14025391 620.65159851 -332.58459473 621.72331238 C-336.03694964 629.76162141 -339.90336618 638.22873302 -347.46520996 643.13371277 C-351.39156679 644.44249838 -355.13372266 644.28522242 -359.22703552 644.28761292 C-360.13332516 644.29199517 -361.03961479 644.29637742 -361.97336775 644.30089247 C-365.02265251 644.31429099 -368.07190837 644.32046162 -371.12121582 644.32658386 C-373.30233389 644.33448377 -375.48345066 644.34275265 -377.66456604 644.35136414 C-384.83638255 644.37758924 -392.00820493 644.39288869 -399.18005371 644.40715027 C-401.64620022 644.41250907 -404.11234669 644.41788657 -406.57849312 644.42328262 C-416.83231443 644.44490886 -427.08613415 644.46364803 -437.3399725 644.47490501 C-450.71995235 644.48968938 -464.0997239 644.51390682 -477.47961426 644.56584167 C-489.14827058 644.61098815 -500.81680597 644.63884715 -512.48555094 644.64482558 C-518.66398377 644.64848694 -524.84213572 644.66059222 -531.02049065 644.69292831 C-536.82930401 644.7228954 -542.63766486 644.72936135 -548.44653893 644.71754456 C-550.58151685 644.71732289 -552.7165151 644.72570407 -554.85142136 644.74319839 C-557.76029968 644.76574284 -560.66751644 644.75766373 -563.57640076 644.74171448 C-564.42649355 644.75559657 -565.27658635 644.76947865 -566.15243953 644.78378141 C-570.13162035 644.72980892 -572.0299647 644.53356724 -575.01099491 641.79493141 C-576.46520996 639.13371277 -576.46520996 639.13371277 -576.62145996 635.94621277 C-575.00952003 630.63116758 -572.14679112 626.64375801 -568.96520996 622.13371277 C-567.67381245 620.2472883 -566.3847529 618.35926123 -565.09802246 616.46965027 C-564.1568457 615.09438171 -564.1568457 615.09438171 -563.19665527 613.69132996 C-546.11890273 588.46480208 -533.60346257 560.32251573 -525.06481934 531.14006042 C-524.52981188 529.34987669 -523.94605752 527.57442744 -523.35583496 525.80168152 C-519.44721691 513.60979984 -518.1334429 500.78651284 -516.46520996 488.13371277 C-516.28578857 486.91297058 -516.10636719 485.69222839 -515.92150879 484.43449402 C-515.29214248 479.33703893 -515.32187289 474.25555574 -515.33239746 469.12590027 C-515.33144073 468.08281708 -515.33048401 467.03973389 -515.32949829 465.96504211 C-515.32882041 463.76475463 -515.33064724 461.56446511 -515.33483887 459.36418152 C-515.34016001 456.03991562 -515.33489729 452.71578683 -515.32849121 449.39152527 C-515.32915269 447.24048331 -515.3304353 445.08944143 -515.33239746 442.93840027 C-515.32936111 441.47670914 -515.32936111 441.47670914 -515.32626343 439.98548889 C-515.34420525 434.55461824 -515.57123544 429.17810466 -515.97329712 423.76118469 C-516.06494204 422.51559343 -516.15658695 421.27000217 -516.25100899 419.98666573 C-516.32169531 419.04519125 -516.39238163 418.10371677 -516.46520996 417.13371277 C-517.56258915 417.14323463 -517.56258915 417.14323463 -518.68213761 417.15294886 C-562.25764838 417.53099897 -605.83317683 417.90695055 -649.40872849 418.28025958 C-654.66697635 418.32530844 -659.92522406 418.37037444 -665.18347168 418.41545105 C-666.23008303 418.42442289 -667.27669438 418.43339474 -668.35502122 418.44263846 C-685.19512233 418.58703717 -702.03521119 418.73281762 -718.87529577 418.87912899 C-736.21667568 419.02976423 -753.5580683 419.17886763 -770.89947307 419.3266139 C-780.61374817 419.40942036 -790.32801638 419.49290846 -800.04227066 419.578125 C-803.78840339 419.61090517 -807.53453669 419.64362049 -811.28067017 419.67631531 C-812.19142046 419.68428424 -813.10217076 419.69225318 -814.04051955 419.70046359 C-823.66641293 419.78443933 -833.29230517 419.8644352 -842.91833687 419.93090057 C-843.73468124 419.93655544 -844.55102561 419.9422103 -845.39210769 419.94803652 C-848.59127387 419.97010608 -851.7904403 419.99210499 -854.98961179 420.01339406 C-864.00121676 420.07378773 -873.01131759 420.16045186 -882.02211916 420.29793882 C-886.43373145 420.36268004 -890.8454018 420.40943773 -895.25728011 420.45174122 C-897.18967502 420.47495924 -899.1219897 420.50690651 -901.05407357 420.54863262 C-903.60207988 420.60331895 -906.14862186 420.62807181 -908.69711304 420.64506531 C-909.76908247 420.68064088 -909.76908247 420.68064088 -910.86270785 420.71693516 C-914.58813907 420.70727828 -916.99592973 420.09581184 -919.90696621 417.8631258 C-923.21289072 414.33600551 -923.21289072 414.33600551 -923.16520691 410.95175171 C-923.16852964 410.14860472 -923.17185238 409.34545773 -923.1752758 408.51797295 C-923.14809031 407.64890879 -923.12090481 406.77984463 -923.09289551 405.88444519 C-923.08773485 404.95623522 -923.0825742 404.02802525 -923.07725716 403.0716877 C-923.0522985 399.98058818 -922.98369492 396.8920819 -922.91442871 393.80168152 C-922.88651386 391.6078776 -922.86098307 389.41404221 -922.83769226 387.22018433 C-922.76699354 381.37857881 -922.6568523 375.53837221 -922.53618622 369.69760895 C-922.46636837 366.1918795 -922.40688885 362.6861455 -922.35150146 359.18016052 C-922.13121535 345.27729186 -921.82740694 331.37836569 -921.45812988 317.47868347 C-921.30065143 311.50274111 -921.1724155 305.52649136 -921.04932117 299.54975605 C-920.94774815 294.8747937 -920.82491606 290.20056623 -920.6961422 285.52628136 C-920.63905041 283.31810524 -920.5900044 281.10970479 -920.54944801 278.9011631 C-920.4916987 275.8555965 -920.40373509 272.81232969 -920.30822754 269.76774597 C-920.2981517 268.87512054 -920.28807587 267.98249512 -920.2776947 267.06282043 C-920.04566344 261.07100785 -918.82357042 258.30241181 -914.46520996 254.13371277 C-912.03468691 252.91845124 -910.56829849 253.03670209 -907.85385132 253.08265686 C-906.87321968 253.09666346 -905.89258804 253.11067005 -904.8822403 253.12510109 C-903.79442009 253.14582869 -902.70659988 253.16655628 -901.58581543 253.18791199 C-900.43280693 253.2056838 -899.27979843 253.22345562 -898.09185028 253.24176598 C-894.86111931 253.2922135 -891.63049489 253.34712839 -888.39985991 253.40332127 C-884.87326113 253.46315769 -881.34655965 253.51605236 -877.81985474 253.56919861 C-872.42792839 253.65081718 -867.03602272 253.73356441 -861.64414155 253.8181181 C-843.78013675 254.09795392 -825.91580396 254.35233337 -808.05114746 254.58683777 C-807.13862874 254.5988291 -806.22611002 254.61082044 -805.28593922 254.62317514 C-753.69779697 255.29675797 -702.10667075 255.52271055 -650.51495075 255.74351978 C-646.95064823 255.75877509 -643.38634627 255.77415726 -639.82204437 255.78955841 C-610.70313938 255.91505384 -581.58420159 256.03027692 -552.46520996 256.13371277 C-553.26439411 252.29250549 -554.06398572 248.45138314 -554.86364746 244.61027527 C-555.0885083 243.52947693 -555.31336914 242.44867859 -555.54504395 241.33512878 C-556.95884764 234.54520039 -556.95884764 234.54520039 -558.39709473 227.76042175 C-559.89465735 220.7346956 -561.03226193 213.68245246 -562.02770996 206.57121277 C-562.14259766 205.76409851 -562.25748535 204.95698425 -562.37585449 204.12541199 C-564.86497234 185.57564183 -565.84120736 167.1524407 -565.77770996 148.44621277 C-565.77621948 147.35319855 -565.774729 146.26018433 -565.77319336 145.13404846 C-565.73274929 128.60102758 -565.09290142 112.48316373 -562.46520996 96.13371277 C-562.18349583 94.19888446 -561.90224734 92.26398829 -561.62145996 90.32902527 C-558.19827535 67.94128447 -552.36674508 44.70082255 -543.56286621 23.77824402 C-542.67549545 21.64034365 -541.83952276 19.49843974 -541.02380371 17.33293152 C-540.76655518 16.66076599 -540.50930664 15.98860046 -540.2442627 15.29606628 C-539.73723352 13.97009999 -539.23763762 12.64125944 -538.7467041 11.30924988 C-537.21738569 7.36314101 -535.87505005 4.66571946 -532.46520996 2.13371277 C-529.39940676 1.7495588 -526.69643663 1.6104102 -523.63214111 1.6526947 C-522.27944229 1.64756815 -522.27944229 1.64756815 -520.89941621 1.64233804 C-517.87122157 1.63573827 -514.84390916 1.65777003 -511.8157959 1.67961121 C-509.64774598 1.68073923 -507.47969453 1.68010671 -505.31164551 1.67784119 C-499.41937503 1.67669136 -493.52742885 1.70024446 -487.63523388 1.72813702 C-481.4799634 1.75310573 -475.32468587 1.7554891 -469.16937256 1.76023865 C-457.51049747 1.77268173 -445.85177202 1.80552147 -434.19296288 1.84563661 C-420.92107376 1.89031279 -407.64918578 1.91233091 -394.37723875 1.93241835 C-367.07314612 1.97425285 -339.76918642 2.04463089 -312.46520996 2.13371277 C-311.55429049 5.06668612 -311.33628839 5.82853829 -312.58239746 8.77824402 C-313.16247559 9.82367371 -313.74255371 10.86910339 -314.34020996 11.94621277 C-332.3710461 46.13658661 -340.92545966 86.79388661 -345.20495605 124.99504089 C-345.44279784 126.94953816 -345.75679729 128.89438023 -346.07849121 130.83683777 C-350.8538099 159.81360149 -345.78907004 189.75591616 -341.96520996 218.57121277 C-341.81301498 219.72650482 -341.81301498 219.72650482 -341.65774536 220.90513611 C-340.43965061 230.07726553 -338.9651635 239.12653122 -337.03356934 248.17692566 C-336.46520996 251.13371277 -336.46520996 251.13371277 -336.46520996 254.13371277 C-335.47087354 254.12855904 -334.47653711 254.1234053 -333.45206928 254.1180954 C-308.68982381 253.98987267 -283.92756382 253.86478077 -259.16528797 253.74256134 C-247.18802485 253.68338006 -235.21076742 253.62334237 -223.23352051 253.56095886 C-156.97686903 253.21647706 -90.72275519 253.06137945 -24.46520996 253.13371277 C-25.25437533 249.64231104 -26.045201 246.15128732 -26.83630371 242.6603241 C-27.05749878 241.68162605 -27.27869385 240.70292801 -27.5065918 239.69457245 C-28.79389319 234.01814471 -30.12591994 228.35718013 -31.52770996 222.70793152 C-36.32106666 203.30398185 -39.86625682 183.9541127 -42.46520996 164.13371277 C-42.64551758 162.85472107 -42.8258252 161.57572937 -43.01159668 160.25798035 C-43.54416396 155.94685355 -43.62628374 151.68073092 -43.63317871 147.34074402 C-43.6374588 146.52091537 -43.64173889 145.70108673 -43.64614868 144.85641479 C-43.65609007 142.21962445 -43.65621062 139.58301821 -43.65270996 136.94621277 C-43.65177338 136.04499695 -43.65083679 135.14378113 -43.64987183 134.21525574 C-43.56973832 98.75124296 -35.99330097 66.5640235 -25.34020996 32.82121277 C-25.027854 31.82613708 -24.71549805 30.8310614 -24.39367676 29.80583191 C-17.64062507 8.81414243 -17.64062507 8.81414243 -10.46520996 1.13371277 C-7.19819241 -0.49979601 -3.5902466 -0.00664145 0 0 Z " fill="#365CA3" transform="translate(970.4652099609375,444.8662872314453)"/>
<path d="M0 0 C0.69323364 -0.00043808 1.38646729 -0.00087616 2.10070801 -0.00132751 C4.37887303 0.00075287 6.65629064 0.02404724 8.93432617 0.04760742 C10.51901345 0.05320607 12.10370593 0.0574749 13.68840027 0.06047058 C17.84942076 0.07189823 22.01012467 0.10134725 26.17102051 0.13458252 C30.42085488 0.16532842 34.67074065 0.17898555 38.9206543 0.1940918 C47.25217942 0.22621918 55.58344773 0.27739007 63.91479492 0.34057617 C64.54370117 2.20385742 64.54370117 2.20385742 64.91479492 4.34057617 C63.78798156 5.53568125 62.64544262 6.71892885 61.43823242 7.83276367 C53.66455743 15.52670867 47.35154521 29.82751695 46.78895378 40.7934494 C46.78838824 42.17941692 46.78838824 42.17941692 46.78781128 43.59338379 C46.78498831 44.66051857 46.78216534 45.72765335 46.77925682 46.82712555 C46.78229789 48.58078556 46.78229789 48.58078556 46.78540039 50.36987305 C46.7836764 51.6096566 46.7819524 52.84944016 46.78017616 54.12679291 C46.77657317 57.55094044 46.77751342 60.97502943 46.78059578 64.39917374 C46.78245926 67.30215809 46.78076707 70.20513586 46.77903295 73.10811996 C46.7739211 81.71801312 46.77844406 90.32788429 46.78582001 98.93777466 C46.78930525 103.02359005 46.79157754 107.10940498 46.79339874 111.19522142 C46.81736291 164.91516779 47.03008745 218.62693127 47.91479492 272.34057617 C47.93148476 273.35819031 47.94817459 274.37580444 47.96537018 275.42425537 C49.48016624 369.5461837 49.48016624 369.5461837 53.41479492 463.59057617 C53.50457108 465.24393478 53.50457108 465.24393478 53.59616089 466.93069458 C54.66828682 489.86701882 54.66828682 489.86701882 59.03979492 512.34057617 C59.25152344 513.11344971 59.46325195 513.88632324 59.68139648 514.68261719 C73.91329382 565.40001505 99.61459579 611.00093624 146.68823242 637.67651367 C157.22691284 643.44193461 167.93710577 648.41690063 179.22729492 652.52807617 C180.22180664 652.89054443 181.21631836 653.2530127 182.2409668 653.62646484 C194.18563901 657.75723051 206.29593414 658.76369562 218.84057617 659.41088867 C219.98627295 659.4728713 219.98627295 659.4728713 221.15511513 659.53610611 C234.45930105 660.24825294 247.76249845 660.59904437 261.08276367 660.83276367 C262.02249149 660.84955421 262.96221931 660.86634476 263.93042374 660.8836441 C272.62410863 661.03731165 281.31790648 661.18016114 290.01220703 661.29418945 C294.84571303 661.35838352 299.6786312 661.44092842 304.51165199 661.53458023 C306.31449162 661.56606963 308.11746188 661.59095711 309.92049217 661.60839462 C324.78800753 661.75485937 338.14062417 663.7362215 351.92651367 669.57495117 C356.63799007 671.38919356 359.79616577 670.45692063 364.22729492 668.52807617 C368.83612526 666.57071148 373.32123447 665.51412637 378.22729492 664.65307617 C378.88963135 664.53407959 379.55196777 664.41508301 380.234375 664.29248047 C412.3333636 658.9739645 446.46545605 661.18990773 478.87287927 661.20636439 C482.82386067 661.2077915 486.77483929 661.20742647 490.72582054 661.20619392 C491.73446615 661.20588138 491.73446615 661.20588138 492.76348844 661.20556251 C494.13791011 661.20512885 495.51233179 661.20469163 496.88675346 661.20425092 C510.84592103 661.200083 524.80508075 661.20358262 538.76424712 661.20976061 C540.30912983 661.2104432 541.85401255 661.21112414 543.39889526 661.21180344 C544.16693766 661.21214119 544.93498006 661.21247895 545.72629647 661.21282694 C553.51282541 661.21612715 561.29935442 661.21754472 569.0858839 661.21886007 C665.14596435 661.23550259 761.20585004 661.38616565 909.84753245 661.73085093 C923.99507315 661.76533863 938.14261699 661.79811206 952.29016375 661.83001199 C972.07179828 661.87466628 991.85341914 661.92296876 1011.63502973 661.97725409 C1021.27048866 662.00364501 1030.9059457 662.02870021 1040.54141808 662.04968452 C1048.59217341 662.06724182 1056.64291176 662.08809183 1064.69364706 662.11325713 C1068.75728512 662.12587373 1072.820912 662.13704507 1076.88456404 662.14399314 C1121.72141283 662.22378382 1121.72141283 662.22378382 1133.97729492 666.15307617 C1134.82227539 666.4012207 1135.66725586 666.64936523 1136.5378418 666.9050293 C1140.76563269 668.18410691 1144.6872167 669.67151387 1148.66088867 671.60229492 C1152.52983692 673.35929047 1154.76260931 673.72091244 1158.91479492 672.34057617 C1161.44707098 671.25063211 1163.89148641 670.13222874 1166.35229492 668.90307617 C1167.61924034 668.27414216 1168.88877227 667.6503905 1170.16088867 667.03198242 C1170.71446045 666.75555908 1171.26803223 666.47913574 1171.83837891 666.19433594 C1179.03188152 663.23658419 1185.44997309 663.05209758 1193.17041016 663.06933594 C1194.39109192 663.06410919 1195.61177368 663.05888245 1196.8694458 663.05349731 C1199.51692346 663.04327058 1202.16414191 663.03654069 1204.81161308 663.03561592 C1209.02365607 663.03365976 1213.23553782 663.0155146 1217.44752502 662.99485779 C1227.92342681 662.94584575 1238.39937283 662.91500564 1248.87536621 662.89355469 C1256.99569144 662.87688971 1265.11587853 662.85363961 1273.23611218 662.81053394 C1276.72443897 662.79259173 1280.21257944 662.78010669 1283.70095634 662.78183174 C1319.35036739 662.79412145 1353.50411152 659.80122835 1381.91479492 636.34057617 C1383.0962207 635.4047168 1383.0962207 635.4047168 1384.30151367 634.44995117 C1416.05083651 608.07529555 1426.37416286 561.04464363 1430.52026367 522.10229492 C1431.70680801 508.63633468 1432.1387594 495.17959284 1432.3972168 481.67041016 C1432.43627589 479.75253648 1432.47557431 477.83466766 1432.51509094 475.91680336 C1432.62058573 470.74343031 1432.72135555 465.56997569 1432.82082558 460.39648366 C1432.88416421 457.11710624 1432.9487357 453.83775519 1433.01365662 450.55840874 C1433.99614515 400.84264528 1434.71914664 351.1235275 1435.41479492 301.40307617 C1435.65078082 284.53974274 1435.88873409 267.67644034 1436.13354492 250.81323242 C1436.14853617 249.7798305 1436.16352743 248.74642857 1436.17897296 247.68171144 C1436.67101283 213.86286157 1437.27210446 180.046825 1437.94995117 146.23120117 C1437.9707757 145.18703262 1437.99160023 144.14286406 1438.0130558 143.06705403 C1438.53205977 117.0513381 1439.11195775 91.03851504 1439.85229492 65.02807617 C1439.88762266 63.77830931 1439.9229504 62.52854244 1439.95934868 61.24090385 C1439.99386194 60.04253458 1440.02837521 58.84416531 1440.06393433 57.60948181 C1440.09427702 56.55495788 1440.12461971 55.50043394 1440.15588188 54.41395473 C1440.76017045 36.06222427 1443.15170084 18.50275663 1455.91479492 4.34057617 C1456.46701721 3.64998108 1457.0192395 2.95938599 1457.5881958 2.24786377 C1460.77412216 -0.36387874 1462.79869904 -0.14251671 1466.88647461 -0.11352539 C1467.57956223 -0.1141095 1468.27264984 -0.1146936 1468.98674011 -0.11529541 C1471.27056507 -0.11251552 1473.55307389 -0.0814309 1475.83666992 -0.05004883 C1477.42278327 -0.04258603 1479.00890586 -0.03689328 1480.59503174 -0.03289795 C1484.76439996 -0.01764447 1488.93320848 0.0216343 1493.10235596 0.06591797 C1497.35876901 0.10687719 1501.61527274 0.12511442 1505.87182617 0.14526367 C1514.21973892 0.18812934 1522.56719725 0.25637658 1530.91479492 0.34057617 C1531.48901367 2.23754883 1531.48901367 2.23754883 1531.91479492 4.34057617 C1530.72729492 5.98901367 1530.72729492 5.98901367 1528.91479492 7.71557617 C1521.55601448 15.6041888 1517.55542615 26.02023145 1514.91479492 36.34057617 C1514.66472718 37.23286077 1514.41465944 38.12514536 1514.15701389 39.04446888 C1512.27315736 46.00157818 1511.43493917 52.44667106 1511.33056641 59.63818359 C1511.30403488 60.70543199 1511.27750336 61.77268038 1511.25016785 62.87226963 C1511.16581075 66.39670115 1511.10076684 69.92120541 1511.03588867 73.44604492 C1510.97960426 75.96497177 1510.92212657 78.48387221 1510.86354065 81.00274658 C1510.74126865 86.37456899 1510.6272761 91.74646651 1510.52099609 97.11862183 C1510.36706268 104.89766288 1510.19691041 112.67628794 1510.02324557 120.4549104 C1509.43321064 146.93149444 1508.90988453 173.4094609 1508.38745117 199.88745117 C1508.24940989 206.87821329 1508.11119858 213.86897197 1507.97255325 220.85972214 C1507.93399138 222.80813708 1507.89556761 224.75655476 1507.85728073 226.70497513 C1506.98520758 271.07947011 1505.63645672 315.4351069 1504.07434082 359.79034424 C1503.93497538 363.75148141 1503.79970736 367.71274742 1503.66577148 371.67407227 C1497.79424591 543.61846963 1497.79424591 543.61846963 1480.91479492 596.34057617 C1480.66536133 597.13254395 1480.41592773 597.92451172 1480.15893555 598.74047852 C1471.87786678 624.4831068 1457.8887928 646.40367916 1439.91479492 666.34057617 C1438.84358398 667.5394043 1438.84358398 667.5394043 1437.75073242 668.76245117 C1411.1235726 696.9317245 1368.42075106 715.64659243 1329.75666809 717.4407196 C1327.58488589 717.48715158 1325.41519061 717.50504181 1323.24291992 717.50854492 C1322.0481176 717.51462517 1322.0481176 717.51462517 1320.82917786 717.52082825 C1318.27434162 717.53020154 1315.71964589 717.53023376 1313.16479492 717.52807617 C1311.85622025 717.52916382 1311.85622025 717.52916382 1310.52120972 717.53027344 C1299.01291234 717.52921539 1287.71957042 717.13743743 1276.28198242 715.78588867 C1269.50952024 715.01111171 1262.71995231 715.16731898 1255.91479492 715.34057617 C1255.91479492 716.33057617 1255.91479492 717.32057617 1255.91479492 718.34057617 C1258.13088225 720.23523451 1258.13088225 720.23523451 1261.03979492 722.15307617 C1281.06243207 736.55622356 1294.65948154 755.98289307 1299.41088867 780.41870117 C1303.15605325 809.5671139 1294.69323993 839.16721676 1277.41479492 862.77807617 C1273.15730057 868.19064726 1268.64079542 873.33407564 1263.91479492 878.34057617 C1263.28057617 879.02764648 1262.64635742 879.7147168 1261.99291992 880.42260742 C1241.10545816 902.30265518 1207.52614687 916.8595373 1177.484375 918.53149414 C1174.00028508 918.60722985 1170.52456944 918.61870828 1167.03979492 918.59057617 C1165.80962646 918.5830835 1164.57945801 918.57559082 1163.31201172 918.56787109 C1130.3737563 918.17779847 1100.81462176 906.20845885 1076.91479492 883.34057617 C1076.24061523 882.72956055 1075.56643555 882.11854492 1074.87182617 881.48901367 C1061.38900929 868.84046291 1052.56895305 851.75090466 1046.91479492 834.34057617 C1046.40432617 832.86717773 1046.40432617 832.86717773 1045.88354492 831.36401367 C1042.83013724 821.83442681 1042.71115997 812.20019652 1042.66479492 802.27807617 C1042.65561035 801.19042969 1042.64642578 800.1027832 1042.63696289 798.98217773 C1042.75083972 768.76382307 1056.09076312 744.28493958 1076.85229492 723.21557617 C1079.41068532 720.68109596 1082.02145567 718.47924583 1084.91479492 716.34057617 C979.30411322 716.22958418 873.69397088 716.24012766 768.08396274 716.67359191 C759.89559543 716.70684989 751.70722047 716.73549335 743.51882935 716.76217651 C684.34183317 716.81033244 684.34183317 716.81033244 625.20220947 718.63845825 C605.12631591 719.6041551 585.05931632 719.64599183 564.96337891 719.60131836 C559.69381616 719.58972325 554.42445289 719.59666538 549.15489674 719.60846329 C544.97381638 719.61576198 540.79278195 719.61336099 536.61170006 719.6082077 C534.66857566 719.60690365 532.72544664 719.6084001 530.78232765 719.61316681 C517.53036576 719.63867201 504.49830605 718.84233554 491.31039047 717.55750656 C486.20825293 717.09548839 481.09649623 716.89071635 475.97729492 716.71557617 C474.98407227 716.6769043 473.99084961 716.63823242 472.9675293 716.59838867 C470.61675296 716.50753741 468.26593201 716.42143451 465.91479492 716.34057617 C466.38022705 716.87021973 466.84565918 717.39986328 467.32519531 717.94555664 C490.00858362 743.80444208 502.87879883 775.17241632 501.09057617 809.87670898 C498.91727089 840.33920473 481.33221928 866.66522185 458.91479492 886.34057617 C448.84854654 894.46372116 437.51471617 900.70496271 425.91479492 906.34057617 C424.9015918 906.83299805 423.88838867 907.32541992 422.84448242 907.83276367 C392.1857163 921.58223817 353.64334064 922.72611752 322.19995117 911.07104492 C304.79474318 904.22665521 290.190928 894.46135497 276.91479492 881.34057617 C275.71016602 880.17268555 275.71016602 880.17268555 274.48120117 878.98120117 C261.49716914 865.55742474 253.19300837 847.84733804 248.10229492 830.09057617 C247.89491699 829.36999023 247.68753906 828.6494043 247.47387695 827.90698242 C240.48614935 802.00816415 244.73142399 773.16211842 257.78979492 749.96557617 C261.29417674 743.97004692 265.38063687 738.58920761 269.91479492 733.34057617 C270.50131836 732.63288086 271.0878418 731.92518555 271.69213867 731.19604492 C281.60046646 719.44535232 281.60046646 719.44535232 287.91479492 717.34057617 C287.91479492 716.68057617 287.91479492 716.02057617 287.91479492 715.34057617 C286.68591553 715.35628662 285.45703613 715.37199707 284.19091797 715.38818359 C208.21331278 716.26770236 126.7021047 712.85190037 65.91479492 661.34057617 C64.91448242 660.52331055 63.91416992 659.70604492 62.88354492 658.86401367 C51.05577668 649.14307221 40.18285472 638.56115247 30.91479492 626.34057617 C30.47345215 625.76984375 30.03210938 625.19911133 29.57739258 624.61108398 C19.97614127 612.09687162 12.77286689 598.50986448 5.91479492 584.34057617 C5.55015137 583.59936523 5.18550781 582.8581543 4.80981445 582.09448242 C-4.92953718 561.94753895 -9.98488058 538.07748242 -13.62374878 516.11985779 C-13.92897184 514.28154537 -14.23841451 512.44392809 -14.55227661 510.60707092 C-17.55185675 492.95824272 -19.31491393 475.30498207 -20.61938477 457.46386719 C-20.81936815 454.775874 -21.0325071 452.08899701 -21.24582541 449.4020347 C-22.37867527 435.03332473 -23.2370361 420.68121214 -23.61987305 406.27246094 C-23.64029321 405.53300586 -23.66071337 404.79355078 -23.68175232 404.03168797 C-24.17106137 386.17232175 -24.37676242 368.31058231 -24.55379415 350.44585276 C-24.59172204 346.67013337 -24.63202527 342.89444055 -24.67226571 339.11874521 C-24.80530596 326.62554644 -24.93027912 314.13227301 -25.05283642 301.63896751 C-25.08542572 298.31809258 -25.11815953 294.9972191 -25.15091705 291.67634583 C-25.46386273 259.91015865 -25.7593998 228.14382256 -26.04799688 196.37740588 C-26.13713425 186.58427994 -26.22847324 176.79117535 -26.32023531 166.9980737 C-26.41084899 157.31671923 -26.4999002 147.63535114 -26.5878095 137.95397174 C-26.63942272 132.27255998 -26.69157874 126.59115485 -26.74537849 120.90976334 C-26.85152138 109.64869865 -26.94646822 98.3877246 -27.0172016 87.12637746 C-27.05709636 81.17033166 -27.12422936 75.21524972 -27.20990926 69.25969279 C-27.26280521 65.33757775 -27.29886147 61.41541612 -27.33150375 57.49308562 C-27.35033837 55.67169108 -27.37621888 53.85035192 -27.41009533 52.02917504 C-27.72452701 34.80842663 -25.410406 18.34158974 -13.71020508 4.81323242 C-9.31104504 0.82649364 -5.90154456 -0.03144695 0 0 Z " fill="#365CA3" transform="translate(75.085205078125,945.659423828125)"/>
<path d="M0 0 C1.05732307 -0.0074588 2.11464613 -0.01491761 3.20400929 -0.02260244 C5.07394939 -0.03647609 6.94386285 -0.05651541 8.81363559 -0.08512175 C29.55478192 -0.21073595 53.0186517 8.35702037 68.23336029 22.32639694 C70.79735236 24.97386783 70.9078198 25.9980361 71.22554779 29.81077194 C71.12111432 35.0799153 68.95027142 37.95347183 65.32320404 41.70530319 C48.06270432 57.87105663 28.74878822 61.64381212 5.91304779 61.06077194 C5.88799164 61.82107712 5.86293549 62.58138229 5.83712006 63.36472702 C5.7198315 66.86769212 5.59771722 70.37047381 5.47554779 73.87327194 C5.41657318 75.66668015 5.41657318 75.66668015 5.35640717 77.49631882 C5.29356537 79.27039108 5.29356537 79.27039108 5.22945404 81.08030319 C5.19279633 82.15385056 5.15613861 83.22739792 5.11837006 84.33347702 C4.9533957 87.32832068 4.70260256 90.27956318 4.40596771 93.2624321 C3.85849505 99.1192896 3.73439766 104.9349397 3.70992279 110.81467819 C3.70422272 111.91384064 3.69852264 113.01300308 3.69264984 114.14547348 C3.68325609 116.46578147 3.67668843 118.78610247 3.67281342 121.10642624 C3.66321747 124.56216666 3.63218477 128.0172827 3.60054779 131.47288132 C3.54466209 143.07257897 3.93216723 154.49348088 5.24117279 166.02561569 C5.41625366 167.57570076 5.41625366 167.57570076 5.59487152 169.15710068 C7.84781344 187.10264398 12.74196714 200.47575444 26.91304779 212.06077194 C36.47438556 218.63954315 47.62898775 219.37103058 58.92235565 219.29455185 C59.97427782 219.29555513 61.02619999 219.29655842 62.10999858 219.2975921 C65.60578656 219.29853833 69.10136926 219.28524481 72.59712982 219.27195358 C75.11660451 219.26975015 77.63608012 219.26844642 80.15555573 219.26797104 C85.57158517 219.26504343 90.98755057 219.2560697 96.40356064 219.24166679 C104.26993734 219.22085359 112.13629222 219.2122798 120.0026928 219.20674544 C132.81559922 219.19749922 145.62848006 219.18006791 158.4413681 219.15671921 C159.58987864 219.15462924 159.58987864 219.15462924 160.76159142 219.15249705 C161.91129908 219.15040375 161.91129908 219.15040375 163.08423316 219.14826816 C164.63432876 219.14544728 166.18442436 219.14262871 167.73451996 219.13981247 C168.88635302 219.13771948 168.88635302 219.13771948 170.06145544 219.13558421 C178.54648876 219.12031624 187.03152516 219.10738245 195.51656342 219.09519577 C196.274621 219.09410492 197.03267858 219.09301407 197.81370761 219.09189016 C210.55510167 219.07372524 223.2964984 219.05981704 236.03789985 219.04802412 C243.16662342 219.04118684 250.29532776 219.03178687 257.42403793 219.01617241 C313.68082794 218.89343607 313.68082794 218.89343607 339.016819 219.94263649 C342.48041015 220.08391432 345.94449273 220.19491874 349.40937233 220.29908466 C365.58924785 220.8981542 382.3177788 223.78554922 397.91304779 228.06077194 C398.99948578 228.35806198 398.99948578 228.35806198 400.10787201 228.66135788 C430.24682611 237.01947395 457.38330673 250.66814943 481.91304779 270.06077194 C482.74352631 270.71335983 482.74352631 270.71335983 483.59078217 271.37913132 C498.74728709 283.40366474 512.58980827 297.36891062 523.91304779 313.06077194 C524.65296967 314.06752975 525.39289154 315.07428757 526.15523529 316.11155319 C538.01555259 332.72021817 547.57198537 350.46289342 555.91304779 369.06077194 C556.21936127 369.73881882 556.52567474 370.41686569 556.84127045 371.11545944 C572.76507393 406.89842471 578.50520981 446.65123657 582.16304779 485.31077194 C582.25217438 486.22559341 582.34130096 487.14041489 582.43312836 488.08295822 C586.09980785 526.19564111 582.02732359 555.83222034 564.91304779 590.06077194 C539.50304779 590.06077194 514.09304779 590.06077194 487.91304779 590.06077194 C490.88304779 585.60577194 490.88304779 585.60577194 493.91304779 581.06077194 C506.50930102 561.42402736 514.09875844 539.19141734 514.04586029 515.83030319 C514.04729538 514.4009771 514.04729538 514.4009771 514.04875946 512.94277573 C514.04943613 510.93677835 514.04761789 508.93077871 514.04341888 506.92478561 C514.03809325 503.89909912 514.04336611 500.87356308 514.04976654 497.84788132 C514.07677687 437.50555506 495.55813404 373.25894176 452.91304779 329.06077194 C452.1769931 328.27315475 451.44093842 327.48553757 450.68257904 326.67405319 C426.79704513 301.74434294 392.44602815 285.55624897 358.91304779 279.06077194 C358.16465134 278.90963943 357.41625488 278.75850693 356.64517975 278.60279465 C324.42289492 272.37591637 290.9888076 273.65129482 258.34920502 273.79648972 C253.29927393 273.81541422 248.24938084 273.81962928 243.19941902 273.82320404 C236.97113443 273.82848335 230.74287836 273.84288189 224.51461029 273.85764694 C223.40726154 273.85952766 222.2999128 273.86140839 221.15900803 273.8633461 C206.40717136 273.89571695 191.6688568 274.14354268 176.92184114 274.49333847 C153.7430771 275.0407671 130.57742598 275.22494988 107.39271307 275.22802901 C104.25598712 275.22876093 101.11926507 275.23093394 97.98254013 275.23352623 C86.7881494 275.24271995 75.59377029 275.24687258 64.39937592 275.24607468 C55.47910961 275.24555319 46.5588885 275.25233832 37.63863373 275.26658249 C-4.39894429 275.3321847 -46.43291117 275.33820671 -88.46537018 274.60886765 C-90.3381001 274.57640961 -90.3381001 274.57640961 -92.24866295 274.54329586 C-98.71767646 274.43057868 -105.18665949 274.31616638 -111.65563965 274.20155334 C-196.19362928 272.70900682 -280.7280928 272.78919461 -365.27702619 272.85757663 C-381.5032218 272.87061672 -397.72940385 272.87603044 -413.95560455 272.87546921 C-416.11743633 272.87541687 -418.27926811 272.87536668 -420.44109988 272.87531865 C-421.5098507 272.87529486 -422.57860151 272.87527108 -423.67973872 272.87524658 C-424.74744448 272.875225 -425.81515024 272.87520343 -426.91521072 272.8751812 C-428.5150924 272.87514857 -428.5150924 272.87514857 -430.14729492 272.87511528 C-502.96064902 272.87441331 -575.77625439 272.8771718 -648.58829737 273.36220336 C-652.20112121 273.38449013 -655.81393437 273.40185778 -659.42679214 273.417593 C-717.09183944 273.68198431 -775.58110168 276.66721866 -820.08695221 318.06077194 C-820.98994049 318.89801804 -820.98994049 318.89801804 -821.91117096 319.75217819 C-847.07680478 343.36117487 -863.73312343 373.22386441 -872.21195221 406.62327194 C-872.4633194 407.58684616 -872.71468658 408.55042038 -872.97367096 409.54319382 C-875.71396058 420.18154333 -877.50072451 430.63266401 -878.64945221 441.56077194 C-878.7751358 442.71963913 -878.9008194 443.87850632 -879.03031158 445.07249069 C-879.38951782 448.40126056 -879.74266887 451.73042479 -880.08695221 455.06077194 C-880.16813797 455.79186676 -880.24932373 456.52296158 -880.33296967 457.27621078 C-881.03534896 463.8258641 -881.39082934 470.35800395 -881.62992096 476.93967819 C-881.6720723 478.06338318 -881.71422363 479.18708817 -881.75765228 480.34484482 C-882.04537288 488.55071865 -882.18783934 496.75280291 -882.26273346 504.96311569 C-882.27472778 506.11736038 -882.28672211 507.27160507 -882.2990799 508.46082687 C-882.34718967 513.15960315 -882.39515029 517.8581059 -882.41287994 522.55710983 C-882.5052359 543.23205704 -883.04253827 565.80848254 -896.08695221 583.06077194 C-897.10788971 584.42202194 -897.10788971 584.42202194 -898.14945221 585.81077194 C-900.68423712 588.75439313 -902.22364088 589.99283323 -906.14315033 590.30128098 C-908.02511864 590.29461914 -908.02511864 590.29461914 -909.94510651 590.28782272 C-910.6380481 590.28811478 -911.33098969 590.28840683 -912.0449295 590.28870773 C-914.33380433 590.28731514 -916.62235304 590.27175751 -918.91117096 590.25608444 C-920.498719 590.25235406 -922.08626933 590.2495072 -923.6738205 590.247509 C-927.85122795 590.23987454 -932.02849622 590.2202277 -936.20584869 590.19810104 C-940.46893175 590.17763857 -944.73203731 590.16850643 -948.99515533 590.15842819 C-957.35915148 590.13698159 -965.72303453 590.10284795 -974.08695221 590.06077194 C-974.08695221 585.38312215 -973.56026176 585.12798237 -970.52445221 581.87327194 C-966.91363301 577.50833476 -964.50251556 573.24405174 -962.33695221 568.06077194 C-961.93367706 567.1303508 -961.93367706 567.1303508 -961.52225494 566.18113327 C-955.99236036 552.29608613 -954.49278448 537.77671628 -954.04550934 522.98444748 C-953.93024467 519.20997148 -953.77517349 515.43738781 -953.62317657 511.66424179 C-953.54734601 509.77196871 -953.47329115 507.87962358 -953.40106964 505.98720932 C-951.53165185 457.00710669 -945.26583787 407.15197515 -925.08695221 362.06077194 C-924.45613409 360.59619069 -923.82589854 359.13135833 -923.19632721 357.66624069 C-914.39224029 337.65146157 -901.95403945 319.34907479 -887.14945221 303.31077194 C-885.33638126 301.33287637 -883.61656207 299.30880377 -881.89945221 297.24827194 C-867.73653363 281.10837845 -849.98791551 268.45546456 -831.86283112 257.1711235 C-830.410146 256.26284582 -828.97108516 255.33280967 -827.53617096 254.39670944 C-791.34351122 231.38254925 -748.15601558 222.67932138 -706.08695221 219.06077194 C-705.12604518 218.97053411 -704.16513815 218.88029627 -703.17511272 218.78732395 C-690.18961181 217.7306419 -677.17735504 217.95383701 -664.15897954 218.00334251 C-660.51277138 218.01601531 -656.86655168 218.02257336 -653.22032928 218.02975082 C-646.91654591 218.04280502 -640.6127782 218.05913236 -634.30900764 218.07730293 C-624.33645574 218.10565718 -614.36389953 218.12221594 -604.39131927 218.13677597 C-600.97103209 218.14189878 -597.55074499 218.14707293 -594.13045788 218.15224552 C-593.27600338 218.15353155 -592.42154889 218.15481759 -591.54120183 218.15614259 C-581.84103568 218.17084063 -572.14087305 218.18733269 -562.44071198 218.20505905 C-561.1123807 218.20748117 -561.1123807 218.20748117 -559.75721445 218.20995221 C-545.39115943 218.23651607 -531.02515092 218.27428786 -516.65913073 218.31524762 C-501.87804529 218.35702985 -487.09698445 218.3834211 -472.31584567 218.39645559 C-463.21481177 218.40503097 -454.11397829 218.42598969 -445.01301517 218.46308432 C-438.77710853 218.48742214 -432.54128685 218.49704983 -426.30533341 218.49526425 C-422.71281382 218.49468854 -419.1206167 218.50053526 -415.52816772 218.52413559 C-411.62475216 218.54961955 -407.72172626 218.54370504 -403.81822968 218.53506088 C-402.69613108 218.54739437 -401.57403248 218.55972785 -400.4179309 218.57243508 C-390.8201029 218.50588549 -380.84714829 216.79553042 -373.77445221 209.81077194 C-372.97136627 209.01928757 -372.16828033 208.22780319 -371.34085846 207.41233444 C-370.22517487 206.248311 -370.22517487 206.248311 -369.08695221 205.06077194 C-368.41535065 204.40850632 -367.74374908 203.75624069 -367.05179596 203.08420944 C-350.55486441 186.0618979 -352.72168245 152.01270399 -352.83695221 129.99827194 C-352.83872467 129.0111824 -352.84049713 128.02409286 -352.8423233 127.00709152 C-352.87352313 112.07542329 -353.33553245 97.20801471 -354.37503815 82.31248093 C-354.93899479 74.20886555 -355.21106942 66.18441553 -355.08695221 58.06077194 C-356.65122955 58.30053757 -356.65122955 58.30053757 -358.24710846 58.54514694 C-381.91361778 61.47682084 -411.0143173 60.35093225 -431.11820221 45.77561569 C-441.74598372 36.51848061 -441.74598372 36.51848061 -442.36429596 30.24827194 C-441.86836532 24.54856205 -437.96028261 21.02448006 -434.08695221 17.06077194 C-431.245628 14.70967621 -428.3182891 12.83044691 -425.08695221 11.06077194 C-424.11048737 10.51163132 -424.11048737 10.51163132 -423.11429596 9.95139694 C-416.36060067 6.56804285 -408.8498332 5.0866395 -401.49552369 3.56163728 C-399.92523947 3.23509479 -398.35751891 2.89589098 -396.79310966 2.54227221 C-388.68575831 0.85482978 -380.69458512 0.77021184 -372.45468903 0.78229904 C-370.8900355 0.7772881 -369.32538455 0.77140999 -367.76073718 0.76474631 C-363.48598109 0.74902483 -359.21129087 0.74551993 -354.93650937 0.74409771 C-350.31588723 0.74038917 -345.69530062 0.725225 -341.0746994 0.711483 C-333.07222876 0.6892415 -325.06977083 0.67420835 -317.067276 0.66411591 C-305.47209998 0.64948454 -293.87696792 0.62393044 -282.28181776 0.59578462 C-263.43448498 0.55033437 -244.5871458 0.51372244 -225.73978424 0.48264694 C-207.49270223 0.45254281 -189.24563631 0.41820447 -170.9985733 0.37815475 C-169.87642222 0.37569321 -168.75427114 0.37323166 -167.59811547 0.37069552 C-161.9650571 0.35831444 -156.33199889 0.34585584 -150.69894075 0.33336711 C-116.21267797 0.25703606 -81.72640642 0.1864212 -47.24011254 0.12567949 C-44.54696471 0.12091697 -41.853817 0.11608282 -39.16066933 0.11123085 C-38.30250562 0.10969918 -37.44434191 0.10816751 -36.56017324 0.10658942 C-34.87197057 0.10356785 -33.18376796 0.10050381 -31.49556544 0.09739496 C-27.54159829 0.09028463 -23.58763714 0.08434471 -19.63366461 0.08132339 C-13.08881115 0.0757347 -6.54464009 0.06149185 0 0 Z " fill="#365CA3" transform="translate(1007.0869522094727,31.939228057861328)"/>
<path d="M0 0 C43.50224743 -0.19122352 86.98913377 0.32156661 130.48672223 0.89076424 C139.95076875 1.01446625 149.41486558 1.13410316 158.87896705 1.25351524 C178.25270088 1.498046 197.6263709 1.74731411 217 2 C216.97058665 2.87251152 216.94117331 3.74502304 216.91086864 4.6439743 C216.305288 22.85903791 215.83881524 41.05437256 215.83203125 59.28125 C215.82879657 61.41296406 215.82543111 63.54467793 215.82194519 65.6763916 C215.81606507 70.06860876 215.81409425 74.46080655 215.81469727 78.85302734 C215.81479999 84.43192837 215.80098476 90.01070531 215.78392506 95.58957672 C215.77274052 99.96173663 215.77077979 104.33386668 215.77130699 108.70603943 C215.7701429 110.76297953 215.76581187 112.81992081 215.75797462 114.87684631 C215.71977964 125.90227021 216.03754953 136.64447566 217.57060242 147.57189941 C217.93065435 150.4463782 218.03388696 153.11383934 218 156 C193.87558422 156.02349713 169.75117019 156.04106093 145.62674522 156.05181217 C134.422058 156.05693975 123.21737794 156.06391389 112.01269531 156.07543945 C102.23175794 156.08549559 92.45082577 156.09187906 82.66988337 156.09408849 C77.5045594 156.0953773 72.33925027 156.09834422 67.17393112 156.10573006 C44.42678252 156.13703631 21.72836844 155.99992479 -1 155 C-0.8582988 153.74482574 -0.7165976 152.48965149 -0.57060242 151.19644165 C0.85296131 137.9334803 1.28196515 124.85411227 1.23046875 111.5234375 C1.2292699 109.41769438 1.22882527 107.31195072 1.2290802 105.20620728 C1.22752989 100.81777533 1.21936319 96.42942661 1.20581055 92.04101562 C1.1889686 86.52966436 1.18507517 81.01840434 1.18563652 75.50703049 C1.18494499 50.3217525 0.92628901 25.16940942 0 0 Z " fill="#FEFEFE" transform="translate(724,91)"/>
<path d="M0 0 C0.71051514 0.24387451 1.42103027 0.48774902 2.15307617 0.73901367 C2.9170874 0.99900146 3.68109863 1.25898926 4.46826172 1.52685547 C31.94598665 11.2802002 60.05008063 27.15631991 73.15307617 54.42651367 C74.72253749 58.70686273 76.01314479 63.01387607 77.15307617 67.42651367 C77.34643555 68.0787793 77.53979492 68.73104492 77.73901367 69.40307617 C81.04603135 85.56378521 75.49831439 101.78828161 67.15307617 115.42651367 C58.51950926 127.97438514 47.29525014 137.01032626 34.15307617 144.42651367 C33.48018555 144.83643555 32.80729492 145.24635742 32.11401367 145.66870117 C15.9029425 154.88116012 -5.13549387 154.86824913 -22.70629883 150.45776367 C-43.39209497 144.10610842 -61.49924994 130.56268124 -71.81054688 111.20703125 C-77.07421895 100.92362368 -79.4026659 91.12340919 -79.28442383 79.55151367 C-79.27197632 77.97116333 -79.27197632 77.97116333 -79.25927734 76.35888672 C-78.84184668 57.11399598 -69.69642634 41.55600334 -56.42504883 27.94213867 C-43.1903683 15.34913962 -19.12070154 -6.08751004 0 0 Z " fill="#FEFEFE" transform="translate(1245.846923828125,1666.573486328125)"/>
<path d="M0 0 C1.04260986 0.35271973 2.08521973 0.70543945 3.15942383 1.06884766 C18.52352164 6.45864866 32.21900706 13.92531343 44.5625 24.5625 C45.2328125 25.13226562 45.903125 25.70203125 46.59375 26.2890625 C58.87803656 37.62410874 67.70804165 54.69222105 68.8125 71.328125 C69.686399 93.61513495 61.16071434 112.97362007 46.5625 129.5625 C33.58230229 143.26381981 14.12360468 152.99528611 -4.83984375 153.8125 C-27.13723868 154.32038119 -45.68409189 148.20506632 -62.27734375 132.81640625 C-74.99697663 119.5447459 -81.44671111 104.40584444 -81.75 86 C-81.02664843 57.90502511 -68.31529423 33.42097849 -48.2734375 14.04296875 C-42.64018188 9.1158099 -36.60700007 4.78757574 -30.4375 0.5625 C-29.57640625 -0.04464844 -28.7153125 -0.65179687 -27.828125 -1.27734375 C-18.92183598 -6.97800037 -9.32947348 -3.16493531 0 0 Z " fill="#FEFEFE" transform="translate(456.4375,1669.4375)"/>
<path d="M0 0 C23.43 0 46.86 0 71 0 C71.495 1.98 71.495 1.98 72 4 C71.01 4.33 70.02 4.66 69 5 C68.505 3.515 68.505 3.515 68 2 C59.46367056 2.10756856 50.92742968 2.22021553 42.39125443 2.33933926 C38.4275308 2.39449421 34.4637997 2.44790223 30.5 2.49731445 C26.67444278 2.5450677 22.84897343 2.59741427 19.02352142 2.65294075 C17.56432026 2.6733147 16.10509506 2.69203586 14.64585114 2.70907402 C12.60137754 2.73322817 10.55706852 2.76326713 8.51269531 2.79467773 C6.76729462 2.81799416 6.76729462 2.81799416 4.9866333 2.84178162 C2.48036303 2.97455253 0.38753779 3.26982912 -2 4 C-1.34 2.68 -0.68 1.36 0 0 Z " fill="#4C70AD" transform="translate(68,946)"/>
<path d="M0 0 C23.43 0 46.86 0 71 0 C69.68 1.65 68.36 3.3 67 5 C66.505 4.505 66.505 4.505 66 4 C63.97585009 3.87624831 61.94742263 3.82202689 59.91967773 3.79467773 C58.61840439 3.77473251 57.31713104 3.75478729 55.97642517 3.73423767 C54.5454826 3.71725201 53.11453875 3.70037325 51.68359375 3.68359375 C50.2277008 3.66303094 48.77181391 3.64203466 47.31593323 3.62062073 C43.47727353 3.56533039 39.63855935 3.51595198 35.79980469 3.46777344 C31.88536712 3.41760909 27.97100904 3.36189664 24.05664062 3.30664062 C16.37116099 3.19897397 8.68561543 3.09754807 1 3 C0.67 2.01 0.34 1.02 0 0 Z " fill="#4F70B1" transform="translate(1535,946)"/>
<path d="M0 0 C0.33 0 0.66 0 1 0 C1.33 15.84 1.66 31.68 2 48 C2.66 48.33 3.32 48.66 4 49 C3.67 59.23 3.34 69.46 3 80 C2.34 80 1.68 80 1 80 C-0.49343152 53.36051813 -0.09804498 26.66934523 0 0 Z " fill="#5776B2" transform="translate(49,1072)"/>
<path d="M0 0 C0.33 0 0.66 0 1 0 C1.67466746 3.22754814 2.33830569 6.45726935 3 9.6875 C3.19078125 10.59951172 3.3815625 11.51152344 3.578125 12.45117188 C3.75859375 13.33740234 3.9390625 14.22363281 4.125 15.13671875 C4.29257813 15.94842529 4.46015625 16.76013184 4.6328125 17.59643555 C5.0153713 20.10061865 5.06298509 22.47075502 5 25 C4.34 25 3.68 25 3 25 C2.34 22.69 1.68 20.38 1 18 C0.67 18 0.34 18 0 18 C-1.125 11.25 -1.125 11.25 0 9 C-0.66 9 -1.32 9 -2 9 C-1.34 6.03 -0.68 3.06 0 0 Z " fill="#476AAA" transform="translate(1579,454)"/>
<path d="M0 0 C0.66 0 1.32 0 2 0 C2.86343824 2.12124966 3.71550648 4.24713072 4.5625 6.375 C5.27599609 8.15003906 5.27599609 8.15003906 6.00390625 9.9609375 C7 13 7 13 6 15 C4.02 15 2.04 15 0 15 C0.01160156 14.31292969 0.02320313 13.62585938 0.03515625 12.91796875 C0.04417969 12.01691406 0.05320312 11.11585938 0.0625 10.1875 C0.07410156 9.29417969 0.08570313 8.40085937 0.09765625 7.48046875 C0.11009967 4.86586209 0.11009967 4.86586209 -1 2 C-0.67 1.34 -0.34 0.68 0 0 Z " fill="#4164A8" transform="translate(1561,401)"/>
<path d="M0 0 C0.5 2 0.5 2 1 4 C1.226875 4.66 1.45375 5.32 1.6875 6 C2.09205762 8.58916878 1.33413341 9.80260379 0 12 C-0.66 12 -1.32 12 -2 12 C-2 13.65 -2 15.3 -2 17 C-2.66 17.33 -3.32 17.66 -4 18 C-5.41077471 14.1653439 -4.60999698 11.21671707 -3.6875 7.3125 C-3.42324219 6.15363281 -3.15898438 4.99476563 -2.88671875 3.80078125 C-2.59410156 2.87652344 -2.30148438 1.95226562 -2 1 C-1.34 0.67 -0.68 0.34 0 0 Z " fill="#3E63A9" transform="translate(69,436)"/>
<path d="M0 0 C0.99 0 1.98 0 3 0 C2.50130596 5.36891879 1.97772468 10.69235173 1 16 C0.67 14.68 0.34 13.36 0 12 C-0.99 12.33 -1.98 12.66 -3 13 C-2.52060632 8.28596212 -2.03165952 4.33420699 0 0 Z " fill="#3F63A7" transform="translate(660,981)"/>
<path d="M0 0 C2.92572316 0.24381026 3.90001798 0.89249901 5.921875 3.06640625 C6.52515625 3.89011719 7.1284375 4.71382812 7.75 5.5625 C8.36359375 6.38878906 8.9771875 7.21507812 9.609375 8.06640625 C10.06828125 8.70449219 10.5271875 9.34257813 11 10 C10.34 10.66 9.68 11.32 9 12 C8.69707031 11.4946875 8.39414063 10.989375 8.08203125 10.46875 C6.81585432 8.50520177 5.58981351 6.71442051 4 5 C1.28528995 4.41231617 1.28528995 4.41231617 -1 5 C-1 1 -1 1 0 0 Z " fill="#4163A8" transform="translate(1350,1683)"/>
<path d="M0 0 C1.0625 1.875 1.0625 1.875 2 4 C1.67 4.66 1.34 5.32 1 6 C0.34 6 -0.32 6 -1 6 C-0.87625 6.7425 -0.7525 7.485 -0.625 8.25 C-1 11 -1 11 -4 13.3125 C-4.99 13.869375 -5.98 14.42625 -7 15 C-5.34292168 9.35086937 -3.52237988 4.73699363 0 0 Z " fill="#4365A9" transform="translate(957,450)"/>
<path d="M0 0 C1.40182371 2.61673759 2.60495559 5.0371669 3 8 C0.6084939 10.3915061 -0.71447284 10.51919115 -4 11 C-4.99 11 -5.98 11 -7 11 C-6.57847656 10.37351562 -6.15695312 9.74703125 -5.72265625 9.1015625 C-4.90087891 7.87566406 -4.90087891 7.87566406 -4.0625 6.625 C-3.24458984 5.40683594 -3.24458984 5.40683594 -2.41015625 4.1640625 C-0.98906121 2.07280816 -0.98906121 2.07280816 0 0 Z " fill="#4164A8" transform="translate(516,1779)"/>
<path d="M0 0 C0.66 0.33 1.32 0.66 2 1 C3.14242743 5.68395246 3.08252495 10.21355271 3 15 C2.67 15 2.34 15 2 15 C2 13.35 2 11.7 2 10 C1.01 10.33 0.02 10.66 -1 11 C-1.33 10.67 -1.66 10.34 -2 10 C-1.9140625 7.96875 -1.9140625 7.96875 -1.625 5.5 C-1.53476562 4.6853125 -1.44453125 3.870625 -1.3515625 3.03125 C-1 1 -1 1 0 0 Z " fill="#4669AA" transform="translate(573,1729)"/>
<path d="M0 0 C1.32 1.32 2.64 2.64 4 4 C3.34 5.98 2.68 7.96 2 10 C1.34 10 0.68 10 0 10 C-0.33 12.31 -0.66 14.62 -1 17 C-3 14 -3 14 -2.5390625 10.64453125 C-2.23742187 9.37996094 -1.93578125 8.11539062 -1.625 6.8125 C-1.32851563 5.54019531 -1.03203125 4.26789063 -0.7265625 2.95703125 C-0.48679687 1.98121094 -0.24703125 1.00539063 0 0 Z " fill="#4063A9" transform="translate(963,1022)"/>
<path d="M0 0 C0.33 0 0.66 0 1 0 C1 1.65 1 3.3 1 5 C1.99 5.33 2.98 5.66 4 6 C4.33 8.31 4.66 10.62 5 13 C3.68 13 2.36 13 1 13 C0.34 13.66 -0.32 14.32 -1 15 C-0.67 10.05 -0.34 5.1 0 0 Z " fill="#486AAD" transform="translate(977,939)"/>
<path d="M0 0 C0.66 0 1.32 0 2 0 C2.05447047 1.41623216 2.09300508 2.83308191 2.125 4.25 C2.14820313 5.03890625 2.17140625 5.8278125 2.1953125 6.640625 C1.97533435 9.2979611 1.53509841 10.81803622 0 13 C-2.125 13.75 -2.125 13.75 -4 14 C-3.52188823 12.22888156 -3.0424722 10.45811517 -2.5625 8.6875 C-2.29566406 7.70136719 -2.02882813 6.71523438 -1.75390625 5.69921875 C-1.21920575 3.78482474 -0.62855462 1.88566385 0 0 Z " fill="#4669AB" transform="translate(445,978)"/>
<path d="M0 0 C0.66 0 1.32 0 2 0 C2.08912219 3.83225427 1.87867729 7.26562152 1 11 C-0.32 10.34 -1.64 9.68 -3 9 C-2.25 2.25 -2.25 2.25 0 0 Z " fill="#4266A7" transform="translate(397,1075)"/>
<path d="M0 0 C1.32 0.33 2.64 0.66 4 1 C4 1.66 4 2.32 4 3 C8.455 3.99 8.455 3.99 13 5 C12.01 5.33 11.02 5.66 10 6 C10.33 7.65 10.66 9.3 11 11 C6.86378916 7.6189962 3.18683431 4.33409466 0 0 Z " fill="#4062A8" transform="translate(1144,1820)"/>
<path d="M0 0 C0.05410687 1.77049689 0.09284119 3.54146849 0.125 5.3125 C0.14820313 6.29863281 0.17140625 7.28476562 0.1953125 8.30078125 C0 11 0 11 -2 14 C-2.66 14 -3.32 14 -4 14 C-3.88655624 11.8535247 -3.75893655 9.70779408 -3.625 7.5625 C-3.52058594 5.77005859 -3.52058594 5.77005859 -3.4140625 3.94140625 C-3.27742188 2.97074219 -3.14078125 2.00007813 -3 1 C-1 0 -1 0 0 0 Z " fill="#3F63A8" transform="translate(61,483)"/>
<path d="M0 0 C0.66 0.33 1.32 0.66 2 1 C2 1.99 2 2.98 2 4 C0.66666667 5.33333333 -0.66666667 6.66666667 -2 8 C-2.99 8 -3.98 8 -5 8 C-5.33 8.66 -5.66 9.32 -6 10 C-6 9.34 -6 8.68 -6 8 C-6.66 7.67 -7.32 7.34 -8 7 C-5.36 4.69 -2.72 2.38 0 0 Z " fill="#3F63A6" transform="translate(830,1246)"/>
<path d="M0 0 C0.99 0.33 1.98 0.66 3 1 C3.33 1 3.66 1 4 1 C5.32 1 6.64 1 8 1 C5.35039045 4.63094642 2.98175544 6.89851796 -1 9 C-0.67 6.03 -0.34 3.06 0 0 Z " fill="#4064A6" transform="translate(530,1826)"/>
<path d="M0 0 C2.64 0 5.28 0 8 0 C8 0.66 8 1.32 8 2 C8.99 2 9.98 2 11 2 C11 2.99 11 3.98 11 5 C12.65 5 14.3 5 16 5 C14.390625 6.1796875 14.390625 6.1796875 12 7 C8.984375 5.8828125 8.984375 5.8828125 5.75 4.125 C4.67234375 3.55007813 3.5946875 2.97515625 2.484375 2.3828125 C1.66453125 1.92648437 0.8446875 1.47015625 0 1 C0 0.67 0 0.34 0 0 Z M11 1 C13 2 13 2 13 2 Z " fill="#4A6CAA" transform="translate(1267,1675)"/>
<path d="M0 0 C-1.25942386 1.19959375 -2.53295286 2.38439443 -3.8125 3.5625 C-4.87404297 4.55443359 -4.87404297 4.55443359 -5.95703125 5.56640625 C-6.63121094 6.03949219 -7.30539062 6.51257812 -8 7 C-8.99 6.67 -9.98 6.34 -11 6 C-10.34 4.68 -9.68 3.36 -9 2 C-8.34 2 -7.68 2 -7 2 C-7 1.34 -7 0.68 -7 0 C-3.98968256 -0.93423645 -3.13349732 -1.04449911 0 0 Z " fill="#3F62A5" transform="translate(1504,1622)"/>
<path d="M0 0 C1.2380014 3.57644848 0.74926071 6.33694766 0 10 C-1.32 9.67 -2.64 9.34 -4 9 C-4.25 6.1875 -4.25 6.1875 -4 3 C-2 1.125 -2 1.125 0 0 Z " fill="#4266A9" transform="translate(1566,1485)"/>
<path d="M0 0 C0.99 0.33 1.98 0.66 3 1 C1.35 5.62 -0.3 10.24 -2 15 C-2.99 14.01 -3.98 13.02 -5 12 C-5 11.01 -5 10.02 -5 9 C-4.01 8.67 -3.02 8.34 -2 8 C-0.89786379 5.27366306 0 2.95855967 0 0 Z " fill="#3F62A5" transform="translate(1159,496)"/>
<path d="M0 0 C-0.33 1.32 -0.66 2.64 -1 4 C-4.3 4 -7.6 4 -11 4 C-11.33 3.34 -11.66 2.68 -12 2 C-7.8803623 0.70756464 -4.33168317 -0.26252625 0 0 Z " fill="#4A6CAD" transform="translate(1261,1609)"/>
<path d="M0 0 C2.475 0.99 2.475 0.99 5 2 C4.67 5.96 4.34 9.92 4 14 C0.83869541 9.78492722 0.6632303 8.93928888 1 4 C0.34 4 -0.32 4 -1 4 C-0.67 2.68 -0.34 1.36 0 0 Z " fill="#486AAB" transform="translate(1186,978)"/>
<path d="M0 0 C0.69287109 0.00451172 1.38574219 0.00902344 2.09960938 0.01367188 C3.79561068 0.02536844 5.49156703 0.04330076 7.1875 0.0625 C7.1875 0.3925 7.1875 0.7225 7.1875 1.0625 C6.36765625 1.11148438 5.5478125 1.16046875 4.703125 1.2109375 C3.62546875 1.28570312 2.5478125 1.36046875 1.4375 1.4375 C-0.16351562 1.54191406 -0.16351562 1.54191406 -1.796875 1.6484375 C-4.6504139 2.04024465 -6.31064736 2.74573545 -8.8125 4.0625 C-11.5625 3.6875 -11.5625 3.6875 -13.8125 3.0625 C-13.4825 2.4025 -13.1525 1.7425 -12.8125 1.0625 C-8.60933254 -0.19607557 -4.34635395 -0.05406948 0 0 Z " fill="#617EB9" transform="translate(626.8125,32.9375)"/>
<path d="M0 0 C0.66 0 1.32 0 2 0 C1.84595887 5.08335725 -1.02068432 7.35754718 -4.50390625 10.64453125 C-4.99761719 11.09183594 -5.49132813 11.53914063 -6 12 C-6.33 11.01 -6.66 10.02 -7 9 C-6.67 8.34 -6.34 7.68 -6 7 C-5.34 7 -4.68 7 -4 7 C-4 6.34 -4 5.68 -4 5 C-2.68 4.67 -1.36 4.34 0 4 C-0.33 3.01 -0.66 2.02 -1 1 C-0.67 0.67 -0.34 0.34 0 0 Z " fill="#4466A6" transform="translate(1517,1604)"/>
<path d="M0 0 C1.625 1.5 1.625 1.5 3 4 C2.65955497 6.83163803 1.86771089 9.25986036 1 12 C0.34 11.67 -0.32 11.34 -1 11 C-1.75 8.625 -1.75 8.625 -2 6 C-1.34 5.01 -0.68 4.02 0 3 C-0.66 2.67 -1.32 2.34 -2 2 C-1.34 2 -0.68 2 0 2 C0 1.34 0 0.68 0 0 Z " fill="#3F63A5" transform="translate(147,1499)"/>
<path d="M0 0 C0.66 1.98 1.32 3.96 2 6 C-0.64 5.67 -3.28 5.34 -6 5 C-6.33 4.01 -6.66 3.02 -7 2 C-2.25 0 -2.25 0 0 0 Z " fill="#4064A7" transform="translate(734,1305)"/>
<path d="M0 0 C0.66 0 1.32 0 2 0 C2.6875 1.75 2.6875 1.75 3 4 C1.875 6.25 1.875 6.25 0 8 C-2.6875 8.25 -2.6875 8.25 -5 8 C-1.125 1.125 -1.125 1.125 0 0 Z " fill="#3F63A6" transform="translate(109,348)"/>
<path d="M0 0 C0.99 0.66 1.98 1.32 3 2 C2.67 2.99 2.34 3.98 2 5 C-3.625 5.25 -3.625 5.25 -7 3 C-7 2.34 -7 1.68 -7 1 C-2.25 1.875 -2.25 1.875 0 3 C0 2.01 0 1.02 0 0 Z " fill="#4C6CAD" transform="translate(759,1516)"/>
<path d="M0 0 C-0.36405249 2.70438996 -0.68142682 3.74406383 -2.84765625 5.484375 C-3.57855469 5.90203125 -4.30945313 6.3196875 -5.0625 6.75 C-5.79597656 7.17796875 -6.52945313 7.6059375 -7.28515625 8.046875 C-7.85105469 8.36140625 -8.41695312 8.6759375 -9 9 C-8.67 7.35 -8.34 5.7 -8 4 C-7.01 3.67 -6.02 3.34 -5 3 C-5 2.34 -5 1.68 -5 1 C-2 0 -2 0 0 0 Z " fill="#4467A8" transform="translate(953,1419)"/>
<path d="M0 0 C0.66 0.33 1.32 0.66 2 1 C1.525625 1.598125 1.05125 2.19625 0.5625 2.8125 C-1.16465744 5.00382924 -1.16465744 5.00382924 -2 8 C-3.65 7.67 -5.3 7.34 -7 7 C-7 6.01 -7 5.02 -7 4 C-1.7265625 0.77734375 -1.7265625 0.77734375 0 0 Z " fill="#3F63A9" transform="translate(769,1287)"/>
<path d="M0 0 C0.33 0 0.66 0 1 0 C1 4.29 1 8.58 1 13 C0.67 12.34 0.34 11.68 0 11 C-0.66 11 -1.32 11 -2 11 C-2.33 8.69 -2.66 6.38 -3 4 C-2.34 3.67 -1.68 3.34 -1 3 C-0.67 2.01 -0.34 1.02 0 0 Z " fill="#5877B3" transform="translate(124,510)"/>
<path d="M0 0 C5.94 2.475 5.94 2.475 12 5 C12 5.66 12 6.32 12 7 C8.1868569 6.32709239 4.56297106 5.53855569 1 4 C0.67 2.68 0.34 1.36 0 0 Z " fill="#4265AA" transform="translate(1049,39)"/>
<path d="M0 0 C2.475 0.495 2.475 0.495 5 1 C4.67 3.97 4.34 6.94 4 10 C3.34 9.67 2.68 9.34 2 9 C2 7.02 2 5.04 2 3 C1.01 3.495 1.01 3.495 0 4 C0 2.68 0 1.36 0 0 Z " fill="#3D61A8" transform="translate(1122,1714)"/>
<path d="M0 0 C1.98 0.495 1.98 0.495 4 1 C4 2.32 4 3.64 4 5 C3.34 5 2.68 5 2 5 C1.67 5.99 1.34 6.98 1 8 C0.34 8 -0.32 8 -1 8 C-0.67 5.36 -0.34 2.72 0 0 Z " fill="#4769AC" transform="translate(410,530)"/>
<path d="M0 0 C-0.33 1.98 -0.66 3.96 -1 6 C-4 5 -4 5 -6 3 C-8.06874034 2.3574765 -8.06874034 2.3574765 -10 2 C-6.38026598 0.68373308 -3.90432869 0 0 0 Z " fill="#4467AA" transform="translate(231,265)"/>
<path d="M0 0 C-1 3 -1 3 -3.3125 4.25 C-6.13936831 5.03889348 -7.32472609 5.10700989 -10 4 C-10.66 3.34 -11.32 2.68 -12 2 C-10.37548581 1.66430703 -8.75037083 1.3315204 -7.125 1 C-6.22007813 0.814375 -5.31515625 0.62875 -4.3828125 0.4375 C-2 0 -2 0 0 0 Z " fill="#4C6CAD" transform="translate(1268,1816)"/>
<path d="M0 0 C1.89213369 2.38573379 3.02391783 4.07175348 4 7 C3.01 7.495 3.01 7.495 2 8 C2 8.66 2 9.32 2 10 C0.68 9.34 -0.64 8.68 -2 8 C-1.67 6.68 -1.34 5.36 -1 4 C-0.34 4.33 0.32 4.66 1 5 C1 4.34 1 3.68 1 3 C0.34 3 -0.32 3 -1 3 C-0.67 2.01 -0.34 1.02 0 0 Z " fill="#4266AB" transform="translate(380,1782)"/>
<path d="M0 0 C0.66 0.33 1.32 0.66 2 1 C2 1.66 2 2.32 2 3 C2.66 3.33 3.32 3.66 4 4 C3.34 4.66 2.68 5.32 2 6 C0.0546875 5.7578125 0.0546875 5.7578125 -2.125 5.125 C-3.21167969 4.81949219 -3.21167969 4.81949219 -4.3203125 4.5078125 C-4.87460938 4.34023437 -5.42890625 4.17265625 -6 4 C-4.03617993 2.49440461 -2.21736634 1.10868317 0 0 Z " fill="#4366A9" transform="translate(1236,1617)"/>
<path d="M0 0 C0.33 1.32 0.66 2.64 1 4 C-0.375 6 -0.375 6 -2 8 C-2.70514846 10.14733927 -2.70514846 10.14733927 -3 12 C-3.66 12 -4.32 12 -5 12 C-5 12.66 -5 13.32 -5 14 C-5.99 13.67 -6.98 13.34 -8 13 C-5.36 8.71 -2.72 4.42 0 0 Z " fill="#4869AA" transform="translate(1485,1546)"/>
<path d="M0 0 C0.99 0.33 1.98 0.66 3 1 C2.67 1.66 2.34 2.32 2 3 C2.66 3.33 3.32 3.66 4 4 C3.34 5.65 2.68 7.3 2 9 C1.34 8.67 0.68 8.34 0 8 C0 7.34 0 6.68 0 6 C-0.66 6 -1.32 6 -2 6 C-1.34 4.02 -0.68 2.04 0 0 Z " fill="#3E62A9" transform="translate(1547,1552)"/>
<path d="M0 0 C-3.41016497 2.86453858 -6.90694544 4.34703566 -11 6 C-11 3 -11 3 -9 1 C-5.8035914 -0.06546953 -3.34252724 -0.07427838 0 0 Z " fill="#4668AA" transform="translate(859,1477)"/>
<path d="M0 0 C-0.66 3.96 -1.32 7.92 -2 12 C-2.33 12 -2.66 12 -3 12 C-3.66 8.7 -4.32 5.4 -5 2 C-2 0 -2 0 0 0 Z " fill="#4667A8" transform="translate(1591,974)"/>
<path d="M0 0 C0.66 0.99 1.32 1.98 2 3 C0.88121617 4.17262904 -0.24523051 5.33795138 -1.375 6.5 C-2.00148438 7.1496875 -2.62796875 7.799375 -3.2734375 8.46875 C-5 10 -5 10 -7 10 C-5.33248852 6.05860922 -2.77289351 3.2107188 0 0 Z " fill="#4468AA" transform="translate(118,337)"/>
<path d="M0 0 C1.62463842 -0.05395478 3.24978541 -0.09277195 4.875 -0.125 C5.77992187 -0.14820313 6.68484375 -0.17140625 7.6171875 -0.1953125 C10 0 10 0 12 2 C8.37 2.33 4.74 2.66 1 3 C0.67 2.01 0.34 1.02 0 0 Z " fill="#4C6DAC" transform="translate(1409,1659)"/>
<path d="M0 0 C1.65 0 3.3 0 5 0 C3.35 2.64 1.7 5.28 0 8 C-2 4 -2 4 -2 2 C-1.34 2 -0.68 2 0 2 C0 1.34 0 0.68 0 0 Z " fill="#4063A6" transform="translate(1068,1297)"/>
<path d="M0 0 C0.66 0.99 1.32 1.98 2 3 C0.47793991 5.62901288 -0.84365964 7.84365964 -3 10 C-4.32 9.67 -5.64 9.34 -7 9 C-4.69 6.03 -2.38 3.06 0 0 Z " fill="#4466A9" transform="translate(890,1183)"/>
<path d="M0 0 C1.32 0.66 2.64 1.32 4 2 C3.6875 4.375 3.6875 4.375 3 7 C0 9 0 9 -2 10 C-1.34 6.7 -0.68 3.4 0 0 Z " fill="#4B6CAC" transform="translate(939,497)"/>
<path d="M0 0 C0.66 0.33 1.32 0.66 2 1 C2 2.65 2 4.3 2 6 C1.34 6 0.68 6 0 6 C-0.33 8.31 -0.66 10.62 -1 13 C-1.33 13 -1.66 13 -2 13 C-1.85915204 11.20793453 -1.71216299 9.41635083 -1.5625 7.625 C-1.48128906 6.62726563 -1.40007812 5.62953125 -1.31640625 4.6015625 C-1 2 -1 2 0 0 Z " fill="#486AA8" transform="translate(322,1728)"/>
<path d="M0 0 C0.99 0.66 1.98 1.32 3 2 C2.34 2.66 1.68 3.32 1 4 C0.29289322 5.64991582 -0.37943989 7.31562256 -1 9 C-2.74627478 6.38058783 -3.38722388 4.96175123 -4 2 C-2.68 1.34 -1.36 0.68 0 0 Z " fill="#3E61A7" transform="translate(1323,1720)"/>
<path d="M0 0 C1.24546405 2.49092811 0.7767578 3.41080733 0 6 C-2.3431213 5.74438677 -4.67843403 5.40729228 -7 5 C-7.33 4.34 -7.66 3.68 -8 3 C-5.36 2.01 -2.72 1.02 0 0 Z " fill="#4264A9" transform="translate(1431,1598)"/>
<path d="M0 0 C1.1875 1.625 1.1875 1.625 2 4 C0.625 7.25 0.625 7.25 -1 10 C-1.99 8.68 -2.98 7.36 -4 6 C-2.68 4.02 -1.36 2.04 0 0 Z " fill="#3E63A7" transform="translate(1541,1569)"/>
<path d="M0 0 C0.66 0 1.32 0 2 0 C2.33 0.99 2.66 1.98 3 3 C4.49985609 4.66710346 4.49985609 4.66710346 6 6 C5.01 7.485 5.01 7.485 4 9 C-0.00390625 4.60546875 -0.00390625 4.60546875 -1 3 C-0.67 2.01 -0.34 1.02 0 0 Z " fill="#3F63A6" transform="translate(706,1475)"/>
<path d="M0 0 C1.3303125 0.37125 1.3303125 0.37125 2.6875 0.75 C2.6875 1.41 2.6875 2.07 2.6875 2.75 C-1.7675 4.235 -1.7675 4.235 -6.3125 5.75 C-6.9725 5.09 -7.6325 4.43 -8.3125 3.75 C-4.12788462 -0.31153846 -4.12788462 -0.31153846 0 0 Z " fill="#4164AA" transform="translate(240.3125,314.25)"/>
<path d="M0 0 C0.66 0.33 1.32 0.66 2 1 C0.68 4.96 -0.64 8.92 -2 13 C-4 9 -4 9 -3.3203125 6.640625 C-2.92585938 5.85171875 -2.53140625 5.0628125 -2.125 4.25 C-1.73570313 3.45078125 -1.34640625 2.6515625 -0.9453125 1.828125 C-0.63335938 1.22484375 -0.32140625 0.6215625 0 0 Z " fill="#3E63A9" transform="translate(1158,1113)"/>
<path d="M0 0 C1.32 0.33 2.64 0.66 4 1 C3.34 2.65 2.68 4.3 2 6 C1.01 6 0.02 6 -1 6 C-1.33 5.01 -1.66 4.02 -2 3 C-1.34 2.01 -0.68 1.02 0 0 Z " fill="#4063A7" transform="translate(1597,954)"/>
<path d="M0 0 C1.27514492 3.82543475 0.52740413 5.33423008 -1 9 C-2.625 10.875 -2.625 10.875 -4 12 C-4.66 11.67 -5.32 11.34 -6 11 C-4.02 7.37 -2.04 3.74 0 0 Z " fill="#4668AB" transform="translate(1508,601)"/>
<path d="M0 0 C1.37432457 3.81756824 0.67975039 7.07255329 0 11 C-0.33 10.01 -0.66 9.02 -1 8 C-1.66 8 -2.32 8 -3 8 C-2.74438677 5.6568787 -2.40729228 3.32156597 -2 1 C-1.34 0.67 -0.68 0.34 0 0 Z " fill="#4064A7" transform="translate(1589,568)"/>
<path d="M0 0 C0.33 1.32 0.66 2.64 1 4 C-0.6210103 4.69685498 -2.24696066 5.38222861 -3.875 6.0625 C-4.77992188 6.44535156 -5.68484375 6.82820313 -6.6171875 7.22265625 C-9 8 -9 8 -11 7 C-7.37 4.69 -3.74 2.38 0 0 Z " fill="#4366A6" transform="translate(177,288)"/>
<path d="M0 0 C0.99 0.33 1.98 0.66 3 1 C3 4.96 3 8.92 3 13 C2.67 13 2.34 13 2 13 C0.54815522 8.46298506 -0.23509196 4.81938524 0 0 Z " fill="#496CAE" transform="translate(1010,90)"/>
<path d="M0 0 C1.32 0.66 2.64 1.32 4 2 C1.69 3.65 -0.62 5.3 -3 7 C-3.33 6.34 -3.66 5.68 -4 5 C-3 2 -3 2 0 0 Z " fill="#4467A9" transform="translate(415,1674)"/>
<path d="M0 0 C2.38672669 2.96283313 4.7353371 5.94270509 7 9 C6.01 9.495 6.01 9.495 5 10 C5 9.34 5 8.68 5 8 C4.38125 7.690625 3.7625 7.38125 3.125 7.0625 C1.75 6.375 0.375 5.6875 -1 5 C-0.67 3.35 -0.34 1.7 0 0 Z " fill="#4265A9" transform="translate(1018,227)"/>
<path d="M0 0 C0.33 0 0.66 0 1 0 C0.67 3.96 0.34 7.92 0 12 C-0.66 10.68 -1.32 9.36 -2 8 C-2.66 7.67 -3.32 7.34 -4 7 C-3.34 7 -2.68 7 -2 7 C-1.855625 6.21625 -1.71125 5.4325 -1.5625 4.625 C-1 2 -1 2 0 0 Z " fill="#3E65A5" transform="translate(1373,1752)"/>
<path d="M0 0 C1.32 1.65 2.64 3.3 4 5 C3.67 5.66 3.34 6.32 3 7 C1.68 7 0.36 7 -1 7 C-1.04254356 5.00045254 -1.04080783 2.99958364 -1 1 C-0.67 0.67 -0.34 0.34 0 0 Z " fill="#4064A8" transform="translate(156,1517)"/>
<path d="M0 0 C0.66 0 1.32 0 2 0 C2.33 0.99 2.66 1.98 3 3 C3.66 3.33 4.32 3.66 5 4 C4.34 5.32 3.68 6.64 3 8 C0.9375 5.6875 0.9375 5.6875 -1 3 C-0.67 2.01 -0.34 1.02 0 0 Z " fill="#3F64A5" transform="translate(698,1467)"/>
<path d="M0 0 C0.99 0.33 1.98 0.66 3 1 C1.02 3.97 -0.96 6.94 -3 10 C-3.33 9.01 -3.66 8.02 -4 7 C-3.67 6.34 -3.34 5.68 -3 5 C-2.34 5 -1.68 5 -1 5 C-0.67 3.35 -0.34 1.7 0 0 Z " fill="#4063A4" transform="translate(1079,1283)"/>
<path d="M0 0 C1.32 0.33 2.64 0.66 4 1 C1.16569547 4.2542015 -0.68607774 5.5206753 -5 6 C-3.35 4.02 -1.7 2.04 0 0 Z " fill="#4163A8" transform="translate(878,1199)"/>
<path d="M0 0 C0.99 0.33 1.98 0.66 3 1 C3 3.31 3 5.62 3 8 C2.01 8 1.02 8 0 8 C0.33 7.01 0.66 6.02 1 5 C0.01 4.67 -0.98 4.34 -2 4 C-1.34 2.68 -0.68 1.36 0 0 Z " fill="#3F61A8" transform="translate(419,1039)"/>
<path d="M0 0 C0.99 0.33 1.98 0.66 3 1 C1.68 1.99 0.36 2.98 -1 4 C-0.67 2.68 -0.34 1.36 0 0 Z M-5 4 C-4.01 4.33 -3.02 4.66 -2 5 C-2.33 5.66 -2.66 6.32 -3 7 C-3.66 7 -4.32 7 -5 7 C-5.33 8.32 -5.66 9.64 -6 11 C-6.33 10.34 -6.66 9.68 -7 9 C-6.0625 6.375 -6.0625 6.375 -5 4 Z " fill="#4165A6" transform="translate(437,452)"/>
<path d="M0 0 C0.99 0 1.98 0 3 0 C3 0.66 3 1.32 3 2 C3.99 1.67 4.98 1.34 6 1 C6.66 1.33 7.32 1.66 8 2 C7.67 2.99 7.34 3.98 7 5 C5.35 4.67 3.7 4.34 2 4 C2 3.01 2 2.02 2 1 C1.34 0.67 0.68 0.34 0 0 Z " fill="#4065A6" transform="translate(1256,1858)"/>
<path d="M0 0 C0.99 0.33 1.98 0.66 3 1 C3 1.66 3 2.32 3 3 C1.1875 4.6875 1.1875 4.6875 -1 6 C-1.99 5.67 -2.98 5.34 -4 5 C-2.68 3.35 -1.36 1.7 0 0 Z " fill="#4164A8" transform="translate(508,1792)"/>
<path d="M0 0 C1.9451 2.91765 2.45276317 4.62537285 3 8 C1.35 7.67 -0.3 7.34 -2 7 C-1.34 4.69 -0.68 2.38 0 0 Z " fill="#4062A8" transform="translate(140,1481)"/>
<path d="M0 0 C0.99 0 1.98 0 3 0 C5.09230769 4.43076923 5.09230769 4.43076923 4.625 7.3125 C4.41875 7.869375 4.2125 8.42625 4 9 C2.68 7.35 1.36 5.7 0 4 C0.66 3.01 1.32 2.02 2 1 C1.34 0.67 0.68 0.34 0 0 Z " fill="#4163A8" transform="translate(1469,366)"/>
<path d="M0 0 C1.32 0 2.64 0 4 0 C4.33 0.99 4.66 1.98 5 3 C2.36 3.33 -0.28 3.66 -3 4 C-3 3.34 -3 2.68 -3 2 C-2.01 2 -1.02 2 0 2 C0 1.34 0 0.68 0 0 Z " fill="#4B6DAB" transform="translate(1268,1858)"/>
<path d="M0 0 C0.99 0.33 1.98 0.66 3 1 C4.1875 4.0625 4.1875 4.0625 5 7 C4.34 7.66 3.68 8.32 3 9 C0 3.375 0 3.375 0 0 Z " fill="#3D63A8" transform="translate(562,1697)"/>
<path d="M0 0 C0.99 0.33 1.98 0.66 3 1 C1.6875 2.5 1.6875 2.5 0 4 C-0.99 4 -1.98 4 -3 4 C-3.33 4.99 -3.66 5.98 -4 7 C-4.66 7 -5.32 7 -6 7 C-4.61990379 3.66476748 -3.15049348 1.81392049 0 0 Z " fill="#4767A9" transform="translate(58,698)"/>
<path d="M0 0 C0.66 0.66 1.32 1.32 2 2 C1.75 3.75 1.75 3.75 1 6 C0.649375 7.0725 0.29875 8.145 -0.0625 9.25 C-0.371875 10.1575 -0.68125 11.065 -1 12 C-1.66 12 -2.32 12 -3 12 C-2.01 8.04 -1.02 4.08 0 0 Z " fill="#5371AE" transform="translate(947,471)"/>
<path d="M0 0 C2.15377564 2.62198774 3.40072174 4.64404172 4 8 C3.01 8.33 2.02 8.66 1 9 C0.08941469 5.92677456 -0.08886184 3.19902639 0 0 Z " fill="#496BAA" transform="translate(1555,386)"/>
<path d="M0 0 C2.97 1.65 5.94 3.3 9 5 C5 6 5 6 2.8125 5.3125 C1 4 1 4 0 0 Z " fill="#4767AA" transform="translate(1464,285)"/>
<path d="M0 0 C2.97 0.495 2.97 0.495 6 1 C5.67 1.99 5.34 2.98 5 4 C3.35 3.67 1.7 3.34 0 3 C0 2.01 0 1.02 0 0 Z " fill="#4568A9" transform="translate(414,1858)"/>
<path d="M0 0 C0.33 1.32 0.66 2.64 1 4 C-2 6 -2 6 -4.1875 5.625 C-4.785625 5.41875 -5.38375 5.2125 -6 5 C-4.02 3.35 -2.04 1.7 0 0 Z " fill="#4969A9" transform="translate(497,1803)"/>
<path d="M0 0 C0.66 0.33 1.32 0.66 2 1 C0.125 5.75 0.125 5.75 -1 8 C-1.99 7.67 -2.98 7.34 -4 7 C-2.79618552 4.50638429 -1.54571278 2.31856917 0 0 Z " fill="#4568A7" transform="translate(1358,1794)"/>
<path d="M0 0 C2 1.25 2 1.25 4 3 C4 4.32 4 5.64 4 7 C3.01 6.67 2.02 6.34 1 6 C-0.1875 3.4375 -0.1875 3.4375 -1 1 C-0.67 0.67 -0.34 0.34 0 0 Z " fill="#476CAB" transform="translate(1315,1712)"/>
<path d="M0 0 C0.99 0.33 1.98 0.66 3 1 C2.67 2.32 2.34 3.64 2 5 C0.68 5.33 -0.64 5.66 -2 6 C-1.34 4.02 -0.68 2.04 0 0 Z " fill="#4165A9" transform="translate(329,1703)"/>
<path d="M0 0 C0.66 0.33 1.32 0.66 2 1 C2 1.99 2 2.98 2 4 C1.34 4 0.68 4 0 4 C-0.33 4.66 -0.66 5.32 -1 6 C-1.66 6 -2.32 6 -3 6 C-1.125 1.125 -1.125 1.125 0 0 Z M-4 6 C-4 9 -4 9 -4 9 Z " fill="#F2F5F7" transform="translate(1181,1704)"/>
<path d="M0 0 C1.25541557 3.76624671 0.37061958 5.37188934 -1 9 C-2.32 8.34 -3.64 7.68 -5 7 C-3.35 4.69 -1.7 2.38 0 0 Z " fill="#4266A6" transform="translate(342,1682)"/>
<path d="M0 0 C2.97 1.98 2.97 1.98 6 4 C4.68 5.32 3.36 6.64 2 8 C1.34 7.67 0.68 7.34 0 7 C0.99 6.67 1.98 6.34 3 6 C3 5.01 3 4.02 3 3 C2.01 3 1.02 3 0 3 C0 2.01 0 1.02 0 0 Z " fill="#4163A9" transform="translate(1329,1663)"/>
<path d="M0 0 C1.65 0 3.3 0 5 0 C5.33 0.66 5.66 1.32 6 2 C2.535 3.485 2.535 3.485 -1 5 C-0.67 3.35 -0.34 1.7 0 0 Z " fill="#4668A9" transform="translate(865,1470)"/>
<path d="M0 0 C0 2.31 0 4.62 0 7 C-1.65 5.35 -3.3 3.7 -5 2 C-2 0 -2 0 0 0 Z " fill="#4265A7" transform="translate(671,1435)"/>
<path d="M0 0 C0.33 1.32 0.66 2.64 1 4 C-0.98 4.33 -2.96 4.66 -5 5 C-5.33 4.34 -5.66 3.68 -6 3 C-4.02 2.01 -2.04 1.02 0 0 Z " fill="#3F62A8" transform="translate(752,1296)"/>
<path d="M0 0 C0 0.66 0 1.32 0 2 C-0.66 2 -1.32 2 -2 2 C-2.33 2.99 -2.66 3.98 -3 5 C-4.98 5.33 -6.96 5.66 -9 6 C-3.2 0 -3.2 0 0 0 Z " fill="#4867A5" transform="translate(801,1269)"/>
<path d="M0 0 C2.31 0 4.62 0 7 0 C6.67 1.32 6.34 2.64 6 4 C1.125 2.25 1.125 2.25 0 0 Z " fill="#4163A6" transform="translate(1435,339)"/>
<path d="M0 0 C0.66 1.98 1.32 3.96 2 6 C-0.64 4.68 -3.28 3.36 -6 2 C-2 0 -2 0 0 0 Z " fill="#4567A9" transform="translate(1428,330)"/>
<path d="M0 0 C4.95 1.98 4.95 1.98 10 4 C6 5 6 5 3 5 C1.3125 3.625 1.3125 3.625 0 2 C0 1.34 0 0.68 0 0 Z " fill="#4669AB" transform="translate(1439,272)"/>
<path d="M0 0 C0.33 0 0.66 0 1 0 C2.12880057 3.31114834 3.21302675 6.58978257 4 10 C3.01 10.495 3.01 10.495 2 11 C-0.32590854 7.36576791 -0.16265833 4.22911669 0 0 Z " fill="#5774B2" transform="translate(598,1347)"/>
<path d="M0 0 C0.66 0.33 1.32 0.66 2 1 C0.77065985 4.68802044 -0.93859378 5.72356973 -4 8 C-4.66 7.67 -5.32 7.34 -6 7 C-4.02 4.69 -2.04 2.38 0 0 Z " fill="#E6ECF3" transform="translate(1053,1324)"/>
<path d="M0 0 C1.61949011 2.57213134 2.04408751 3.67669159 1.625 6.75 C1.41875 7.4925 1.2125 8.235 1 9 C-1 7 -1 7 -1.1875 3.9375 C-1 1 -1 1 0 0 Z " fill="#486BAD" transform="translate(1150,661)"/>
<path d="M0 0 C0 0.66 0 1.32 0 2 C-1.98 2.99 -3.96 3.98 -6 5 C-6 3.68 -6 2.36 -6 1 C-3 0 -3 0 0 0 Z " fill="#4163A8" transform="translate(518,1841)"/>
<path d="M0 0 C2 2 2 2 2.125 4.625 C2.08375 5.40875 2.0425 6.1925 2 7 C1.34 7 0.68 7 0 7 C-0.33 7.99 -0.66 8.98 -1 10 C-0.67 6.7 -0.34 3.4 0 0 Z " fill="#3F64A9" transform="translate(1121,1718)"/>
<path d="M0 0 C1.32 0 2.64 0 4 0 C4.33 0.99 4.66 1.98 5 3 C4.67 3.66 4.34 4.32 4 5 C1.525 4.01 1.525 4.01 -1 3 C-0.67 2.01 -0.34 1.02 0 0 Z " fill="#4062A7" transform="translate(487,1681)"/>
<path d="M0 0 C2.97 0.99 5.94 1.98 9 3 C5 4 5 4 1 4 C1 3.34 1 2.68 1 2 C0.34 1.67 -0.32 1.34 -1 1 C-0.67 0.67 -0.34 0.34 0 0 Z " fill="#4869AA" transform="translate(1218,1615)"/>
<path d="M0 0 C0.66 0.33 1.32 0.66 2 1 C1.34 2.32 0.68 3.64 0 5 C-1.98 4.34 -3.96 3.68 -6 3 C-4 2 -2 1 0 0 Z " fill="#3F61A7" transform="translate(437,1615)"/>
<path d="M0 0 C0.33 0.66 0.66 1.32 1 2 C-0.43257963 4.72872311 -1.81722366 6.81722366 -4 9 C-4.66 8.34 -5.32 7.68 -6 7 C-4.02 4.69 -2.04 2.38 0 0 Z " fill="#4C6DAC" transform="translate(1473,1565)"/>
<path d="M0 0 C0.99 0 1.98 0 3 0 C2.34 2.64 1.68 5.28 1 8 C-0.42944945 5.64561267 -1.08661261 4.51967567 -0.625 1.75 C-0.41875 1.1725 -0.2125 0.595 0 0 Z " fill="#4062A8" transform="translate(1555,1534)"/>
<path d="M0 0 C0.66 0.66 1.32 1.32 2 2 C1.9765625 4.3828125 1.9765625 4.3828125 1.625 7.125 C1.51414063 8.03507812 1.40328125 8.94515625 1.2890625 9.8828125 C1.19367187 10.58148437 1.09828125 11.28015625 1 12 C0.67 12 0.34 12 0 12 C-0.19477739 10.37585622 -0.38059458 8.75063577 -0.5625 7.125 C-0.66691406 6.22007813 -0.77132812 5.31515625 -0.87890625 4.3828125 C-1 2 -1 2 0 0 Z " fill="#4667AA" transform="translate(59,1435)"/>
<path d="M0 0 C0.99 0.66 1.98 1.32 3 2 C2.01 3.98 1.02 5.96 0 8 C-0.66 7.67 -1.32 7.34 -2 7 C-1.42415568 4.61435923 -0.77772405 2.33317216 0 0 Z " fill="#4668A9" transform="translate(1101,1243)"/>
<path d="M0 0 C0.66 0.99 1.32 1.98 2 3 C1.34 4.32 0.68 5.64 0 7 C-0.99 5.68 -1.98 4.36 -3 3 C-2.01 2.01 -1.02 1.02 0 0 Z " fill="#4163A8" transform="translate(869,1209)"/>
<path d="M0 0 C1.32 0 2.64 0 4 0 C4 1.32 4 2.64 4 4 C2.02 4.99 2.02 4.99 0 6 C0 4.02 0 2.04 0 0 Z " fill="#4B6CAD" transform="translate(928,548)"/>
<path d="M0 0 C1.32 0.33 2.64 0.66 4 1 C2.95125002 3.62187494 2.35068687 4.79371361 -0.125 6.25 C-0.74375 6.4975 -1.3625 6.745 -2 7 C-1.34 4.69 -0.68 2.38 0 0 Z " fill="#4A6BAA" transform="translate(426,471)"/>
<path d="M0 0 C0.99 0.66 1.98 1.32 3 2 C2.67 2.99 2.34 3.98 2 5 C0.02 4.34 -1.96 3.68 -4 3 C-2.68 2.01 -1.36 1.02 0 0 Z " fill="#4062A9" transform="translate(1411,321)"/>
<path d="M0 0 C3.465 1.98 3.465 1.98 7 4 C6.67 4.99 6.34 5.98 6 7 C2.58841744 5.86280581 1.88145399 4.95657056 0 2 C0 1.34 0 0.68 0 0 Z " fill="#4364A9" transform="translate(1064,46)"/>
</svg>
